<?xml version="1.0" encoding="UTF-8"?>
<svg height="600" width="800" xmlns="http://www.w3.org/2000/svg" xmlns:xlink="http://www.w3.org/1999/xlink">
    <g id="Notes" font-family="'LucidaGrande', 'Lucida Grande', sans-serif" font-size="13">
        <rect fill="white" height="600.0" width="800.0" x="0.0" y="0.0" />
        <g font-size="13">
            <text x="18.0" y="176.0">Small</text>
            <text x="18.0" y="376.0">Medium</text>
            <text x="18.0" y="576.0">Large</text>
        </g>
        <g font-size="9">
            <text x="250.0" y="30.0">Ultralight</text>
            <text x="450.0" y="30.0">Regular</text>
            <text x="650.0" y="30.0">Black</text>
            <text id="template-version" fill="#505050" text-anchor="end" x="785.0" y="575.0">Template v.3.0</text>
            <a href="https://wangchujiang.com/#/app">
                <text fill="#505050" text-anchor="end" x="785.0" y="590.0">https://wangchujiang.com/#/app</text>
            </a>
        </g>
    </g>
    <g id="Guides" stroke="rgb(39, 170, 225)" stroke-width="0.5">
        <path id="Capline-S" d="M18,76 l800,0" />
        <path id="H-reference" d="M85,145.755 L87.685,145.755 L113.369,79.287 L114.052,79.287 L114.052,76 L112.148,76 L85,145.755 Z M95.693,121.536 L130.996,121.536 L130.263,119.313 L96.474,119.313 L95.693,121.536 Z M139.15,145.755 L141.787,145.755 L114.638,76 L113.466,76 L113.466,79.287 L139.15,145.755 Z" stroke="none" />
        <path id="Baseline-S" d="M18,146 l800,0" />
        <path id="left-margin-Ultralight-S" d="M211,56 l0,110" />
        <path id="right-margin-Ultralight-S" d="M319,56 l0,110" />
        <path id="left-margin-Regular-S" d="M411,56 l0,110" />
        <path id="right-margin-Regular-S" d="M519,56 l0,110" />
        <path id="left-margin-Black-S" d="M611,56 l0,110" />
        <path id="right-margin-Black-S" d="M719,56 l0,110" />
        <path id="Capline-M" d="M18,276 l800,0" />
        <path id="Baseline-M" d="M18,346 l800,0" />
        <path id="Capline-L" d="M18,476 l800,0" />
        <path id="Baseline-L" d="M18,546 l800,0" />
    </g>
    <g id="Symbols">
        <g id="Ultralight-S">
            <path d="M284.34,119.296 L289.641,119.296 C291.043,119.296 291.884,119.296 292.445,119.53 C293.254,119.824 293.891,120.461 294.185,121.27 C294.419,121.831 294.419,122.672 294.419,124.075 L294.419,136.769 C294.419,138.171 294.419,139.013 294.185,139.574 C293.891,140.382 293.254,141.019 292.445,141.314 C291.884,141.548 291.043,141.548 289.641,141.548 L284.34,141.548 C282.937,141.548 282.096,141.548 281.535,141.314 C280.726,141.019 280.089,140.382 279.795,139.574 C279.561,139.013 279.561,138.171 279.561,136.769 L279.561,124.075 C279.561,122.672 279.561,121.831 279.795,121.27 C280.089,120.461 280.726,119.824 281.535,119.53 C282.096,119.296 282.937,119.296 284.34,119.296 Z M284.34,119.296" />
            <path d="M240.427,119.296 L245.728,119.296 C247.13,119.296 247.971,119.296 248.532,119.53 C249.341,119.824 249.978,120.461 250.272,121.27 C250.507,121.831 250.507,122.672 250.507,124.075 L250.507,136.769 C250.507,138.171 250.507,139.013 250.272,139.574 C249.978,140.382 249.341,141.019 248.532,141.314 C247.971,141.548 247.13,141.548 245.728,141.548 L240.427,141.548 C239.024,141.548 238.183,141.548 237.622,141.314 C236.813,141.019 236.176,140.382 235.882,139.574 C235.648,139.013 235.648,138.171 235.648,136.769 L235.648,124.075 C235.648,122.672 235.648,121.831 235.882,121.27 C236.176,120.461 236.813,119.824 237.622,119.53 C238.183,119.296 239.024,119.296 240.427,119.296 Z M240.427,119.296" />
            <path d="M265,100.721 L270.737,110.339 L259.263,110.339 Z M265,100.721" />
            <path d="M240.431,80.452 C239.028,80.452 238.187,80.443 237.626,80.677 C236.817,80.971 236.181,81.608 235.886,82.417 C235.652,82.978 235.65,83.819 235.65,85.221 L235.65,86.878 L227.744,86.878 C226.598,86.839 225.486,87.105 224.477,87.612 C222.614,88.549 221.165,90.331 221.01,92.547 C220.944,93.481 221.215,94.362 221.602,95.198 C221.649,95.301 221.669,95.405 221.72,95.506 C221.73,95.522 221.745,95.537 221.755,95.553 L222.809,97.305 L223.093,97.778 L224.915,100.773 L229.152,107.708 L231.271,111.187 C232.023,112.341 233.039,113.255 234.229,113.862 C235.372,114.445 236.632,114.724 237.898,114.655 L246.928,114.655 C248.256,114.693 249.571,114.38 250.763,113.755 C251.656,113.287 252.477,112.64 253.153,111.862 L254.834,109.092 L258.219,103.542 L265,92.417 L271.77,103.542 L273.344,106.122 L276.847,111.862 C277.523,112.64 278.344,113.287 279.237,113.755 C280.429,114.38 281.744,114.693 283.072,114.655 L292.102,114.655 C293.368,114.724 294.628,114.445 295.771,113.862 C296.961,113.255 297.977,112.341 298.729,111.187 L300.848,107.708 L305.085,100.773 L306.907,97.778 L307.191,97.305 L308.245,95.553 C308.255,95.537 308.27,95.522 308.28,95.506 C308.331,95.405 308.351,95.301 308.399,95.198 C308.785,94.362 309.056,93.481 308.99,92.547 C308.952,91.993 308.834,91.455 308.647,90.961 C308.46,90.468 308.198,90.008 307.89,89.589 C307.582,89.169 307.225,88.786 306.824,88.452 C306.423,88.119 305.989,87.846 305.523,87.612 C304.514,87.105 303.402,86.839 302.256,86.878 L294.422,86.878 L294.422,85.221 C294.422,83.819 294.419,82.978 294.185,82.417 C293.891,81.608 293.254,80.971 292.445,80.677 C291.884,80.443 291.043,80.452 289.64,80.452 L284.338,80.452 C282.936,80.452 282.094,80.443 281.533,80.677 C280.725,80.971 280.088,81.608 279.794,82.417 C279.559,82.978 279.557,83.819 279.557,85.221 L279.557,86.878 L268.373,86.878 L261.627,86.878 L250.502,86.878 L250.502,85.221 C250.502,83.819 250.512,82.978 250.277,82.417 C249.983,81.608 249.346,80.971 248.538,80.677 C247.977,80.443 247.135,80.452 245.733,80.452 L240.431,80.452 Z M240.431,80.452" />
        </g>
        <g id="Regular-S">
            <path d="M484.34,119.296 L489.641,119.296 C491.043,119.296 491.884,119.296 492.445,119.53 C493.254,119.824 493.891,120.461 494.185,121.27 C494.419,121.831 494.419,122.672 494.419,124.075 L494.419,136.769 C494.419,138.171 494.419,139.013 494.185,139.574 C493.891,140.382 493.254,141.019 492.445,141.314 C491.884,141.548 491.043,141.548 489.641,141.548 L484.34,141.548 C482.937,141.548 482.096,141.548 481.535,141.314 C480.726,141.019 480.089,140.382 479.795,139.574 C479.561,139.013 479.561,138.171 479.561,136.769 L479.561,124.075 C479.561,122.672 479.561,121.831 479.795,121.27 C480.089,120.461 480.726,119.824 481.535,119.53 C482.096,119.296 482.937,119.296 484.34,119.296 Z M484.34,119.296" />
            <path d="M440.427,119.296 L445.728,119.296 C447.13,119.296 447.971,119.296 448.532,119.53 C449.341,119.824 449.978,120.461 450.272,121.27 C450.507,121.831 450.507,122.672 450.507,124.075 L450.507,136.769 C450.507,138.171 450.507,139.013 450.272,139.574 C449.978,140.382 449.341,141.019 448.532,141.314 C447.971,141.548 447.13,141.548 445.728,141.548 L440.427,141.548 C439.024,141.548 438.183,141.548 437.622,141.314 C436.813,141.019 436.176,140.382 435.882,139.574 C435.648,139.013 435.648,138.171 435.648,136.769 L435.648,124.075 C435.648,122.672 435.648,121.831 435.882,121.27 C436.176,120.461 436.813,119.824 437.622,119.53 C438.183,119.296 439.024,119.296 440.427,119.296 Z M440.427,119.296" />
            <path d="M465,100.721 L470.737,110.339 L459.263,110.339 Z M465,100.721" />
            <path d="M440.431,80.452 C439.028,80.452 438.187,80.443 437.626,80.677 C436.817,80.971 436.181,81.608 435.886,82.417 C435.652,82.978 435.65,83.819 435.65,85.221 L435.65,86.878 L427.744,86.878 C426.598,86.839 425.486,87.105 424.477,87.612 C422.614,88.549 421.165,90.331 421.01,92.547 C420.944,93.481 421.215,94.362 421.602,95.198 C421.649,95.301 421.669,95.405 421.72,95.506 C421.73,95.522 421.745,95.537 421.755,95.553 L422.809,97.305 L423.093,97.778 L424.915,100.773 L429.152,107.708 L431.271,111.187 C432.023,112.341 433.039,113.255 434.229,113.862 C435.372,114.445 436.632,114.724 437.898,114.655 L446.928,114.655 C448.256,114.693 449.571,114.38 450.763,113.755 C451.656,113.287 452.477,112.64 453.153,111.862 L454.834,109.092 L458.219,103.542 L465,92.417 L471.77,103.542 L473.344,106.122 L476.847,111.862 C477.523,112.64 478.344,113.287 479.237,113.755 C480.429,114.38 481.744,114.693 483.072,114.655 L492.102,114.655 C493.368,114.724 494.628,114.445 495.771,113.862 C496.961,113.255 497.977,112.341 498.729,111.187 L500.848,107.708 L505.085,100.773 L506.907,97.778 L507.191,97.305 L508.245,95.553 C508.255,95.537 508.27,95.522 508.28,95.506 C508.331,95.405 508.351,95.301 508.399,95.198 C508.785,94.362 509.056,93.481 508.99,92.547 C508.952,91.993 508.834,91.455 508.647,90.961 C508.46,90.468 508.198,90.008 507.89,89.589 C507.582,89.169 507.225,88.786 506.824,88.452 C506.423,88.119 505.989,87.846 505.523,87.612 C504.514,87.105 503.402,86.839 502.256,86.878 L494.422,86.878 L494.422,85.221 C494.422,83.819 494.419,82.978 494.185,82.417 C493.891,81.608 493.254,80.971 492.445,80.677 C491.884,80.443 491.043,80.452 489.64,80.452 L484.338,80.452 C482.936,80.452 482.094,80.443 481.533,80.677 C480.725,80.971 480.088,81.608 479.794,82.417 C479.559,82.978 479.557,83.819 479.557,85.221 L479.557,86.878 L468.373,86.878 L461.627,86.878 L450.502,86.878 L450.502,85.221 C450.502,83.819 450.512,82.978 450.277,82.417 C449.983,81.608 449.346,80.971 448.538,80.677 C447.977,80.443 447.135,80.452 445.733,80.452 L440.431,80.452 Z M440.431,80.452" />
        </g>
        <g id="Black-S">
            <path d="M684.34,119.296 L689.641,119.296 C691.043,119.296 691.884,119.296 692.445,119.53 C693.254,119.824 693.891,120.461 694.185,121.27 C694.419,121.831 694.419,122.672 694.419,124.075 L694.419,136.769 C694.419,138.171 694.419,139.013 694.185,139.574 C693.891,140.382 693.254,141.019 692.445,141.314 C691.884,141.548 691.043,141.548 689.641,141.548 L684.34,141.548 C682.937,141.548 682.096,141.548 681.535,141.314 C680.726,141.019 680.089,140.382 679.795,139.574 C679.561,139.013 679.561,138.171 679.561,136.769 L679.561,124.075 C679.561,122.672 679.561,121.831 679.795,121.27 C680.089,120.461 680.726,119.824 681.535,119.53 C682.096,119.296 682.937,119.296 684.34,119.296 Z M684.34,119.296" />
            <path d="M640.427,119.296 L645.728,119.296 C647.13,119.296 647.971,119.296 648.532,119.53 C649.341,119.824 649.978,120.461 650.272,121.27 C650.507,121.831 650.507,122.672 650.507,124.075 L650.507,136.769 C650.507,138.171 650.507,139.013 650.272,139.574 C649.978,140.382 649.341,141.019 648.532,141.314 C647.971,141.548 647.13,141.548 645.728,141.548 L640.427,141.548 C639.024,141.548 638.183,141.548 637.622,141.314 C636.813,141.019 636.176,140.382 635.882,139.574 C635.648,139.013 635.648,138.171 635.648,136.769 L635.648,124.075 C635.648,122.672 635.648,121.831 635.882,121.27 C636.176,120.461 636.813,119.824 637.622,119.53 C638.183,119.296 639.024,119.296 640.427,119.296 Z M640.427,119.296" />
            <path d="M665,100.721 L670.737,110.339 L659.263,110.339 Z M665,100.721" />
            <path d="M640.431,80.452 C639.028,80.452 638.187,80.443 637.626,80.677 C636.817,80.971 636.18,81.608 635.886,82.417 C635.652,82.978 635.649,83.819 635.649,85.221 L635.649,86.878 L627.744,86.878 C626.598,86.839 625.486,87.105 624.477,87.612 C622.614,88.549 621.165,90.331 621.01,92.547 C620.944,93.481 621.215,94.362 621.602,95.198 C621.649,95.301 621.669,95.405 621.72,95.506 C621.73,95.522 621.745,95.537 621.755,95.553 L622.809,97.305 L623.093,97.778 L624.915,100.773 L629.152,107.708 L631.271,111.187 C632.023,112.341 633.039,113.255 634.229,113.862 C635.372,114.445 636.632,114.724 637.898,114.655 L646.928,114.655 C648.256,114.693 649.571,114.38 650.763,113.755 C651.656,113.287 652.477,112.64 653.153,111.862 L654.834,109.092 L658.219,103.542 L665,92.417 L671.77,103.542 L673.344,106.122 L676.847,111.862 C677.523,112.64 678.344,113.287 679.237,113.755 C680.429,114.38 681.744,114.693 683.072,114.655 L692.102,114.655 C693.368,114.724 694.628,114.445 695.771,113.862 C696.961,113.255 697.977,112.341 698.729,111.187 L700.848,107.708 L705.085,100.773 L706.907,97.778 L707.191,97.305 L708.245,95.553 C708.255,95.537 708.27,95.522 708.28,95.506 C708.331,95.405 708.351,95.301 708.398,95.198 C708.785,94.362 709.056,93.481 708.99,92.547 C708.952,91.993 708.834,91.455 708.647,90.961 C708.46,90.468 708.198,90.008 707.89,89.589 C707.582,89.169 707.225,88.786 706.824,88.452 C706.423,88.119 705.989,87.846 705.523,87.612 C704.514,87.105 703.402,86.839 702.256,86.878 L694.422,86.878 L694.422,85.221 C694.422,83.819 694.419,82.978 694.185,82.417 C693.89,81.608 693.254,80.971 692.445,80.677 C691.884,80.443 691.043,80.452 689.64,80.452 L684.338,80.452 C682.936,80.452 682.094,80.443 681.533,80.677 C680.725,80.971 680.088,81.608 679.794,82.417 C679.559,82.978 679.557,83.819 679.557,85.221 L679.557,86.878 L668.373,86.878 L661.627,86.878 L650.502,86.878 L650.502,85.221 C650.502,83.819 650.512,82.978 650.277,82.417 C649.983,81.608 649.346,80.971 648.538,80.677 C647.977,80.443 647.135,80.452 645.733,80.452 L640.431,80.452 Z M640.431,80.452" />
        </g>
    </g>
</svg>