<?xml version="1.0" encoding="UTF-8"?>
<!--Generator: Apple Native CoreSVG 341-->
<!DOCTYPE svg
PUBLIC "-//W3C//DTD SVG 1.1//EN"
       "http://www.w3.org/Graphics/SVG/1.1/DTD/svg11.dtd">
<svg version="1.1" xmlns="http://www.w3.org/2000/svg" xmlns:xlink="http://www.w3.org/1999/xlink" viewBox="0 0 3300 2200">
 <!--glyph: "", point size: 100.0, font version: "21.0d6e2", template writer version: "138.0.0"-->
 <style>.defaults {-sfsymbols-variable-value-mode:color;-sfsymbols-draw-reverses-motion-groups:true}

.monochrome-0 {-sfsymbols-motion-group:2;-sfsymbols-layer-tags:f0f874ae7357bb6}
.monochrome-1 {-sfsymbols-motion-group:1;-sfsymbols-layer-tags:f0f874ae7357bb6}
.monochrome-2 {-sfsymbols-motion-group:0;-sfsymbols-layer-tags:f0f874ae7357bb6}

.multicolor-0:tintColor {-sfsymbols-motion-group:2;-sfsymbols-layer-tags:f0f874ae7357bb6}
.multicolor-1:tintColor {-sfsymbols-motion-group:1;-sfsymbols-layer-tags:f0f874ae7357bb6}
.multicolor-2:tintColor {-sfsymbols-motion-group:0;-sfsymbols-layer-tags:f0f874ae7357bb6}

.hierarchical-0:secondary {-sfsymbols-motion-group:2;-sfsymbols-layer-tags:f0f874ae7357bb6}
.hierarchical-1:tertiary {-sfsymbols-motion-group:1;-sfsymbols-layer-tags:f0f874ae7357bb6}
.hierarchical-2:primary {-sfsymbols-motion-group:0;-sfsymbols-layer-tags:f0f874ae7357bb6}

.SFSymbolsPreviewWireframe {fill:none;opacity:1.0;stroke:black;stroke-width:0.5}
</style>
 <g id="Notes">
  <rect height="2200" id="artboard" style="fill:white;opacity:1" width="3300" x="0" y="0"/>
  <line style="fill:none;stroke:black;opacity:1;stroke-width:0.5;" x1="263" x2="3036" y1="292" y2="292"/>
  <text style="stroke:none;fill:black;font-family:sans-serif;font-size:13;font-weight:bold;" transform="matrix(1 0 0 1 263 322)">Weight/Scale Variations</text>
  <text style="stroke:none;fill:black;font-family:sans-serif;font-size:13;text-anchor:middle;" transform="matrix(1 0 0 1 559.711 322)">Ultralight</text>
  <text style="stroke:none;fill:black;font-family:sans-serif;font-size:13;text-anchor:middle;" transform="matrix(1 0 0 1 856.422 322)">Thin</text>
  <text style="stroke:none;fill:black;font-family:sans-serif;font-size:13;text-anchor:middle;" transform="matrix(1 0 0 1 1153.13 322)">Light</text>
  <text style="stroke:none;fill:black;font-family:sans-serif;font-size:13;text-anchor:middle;" transform="matrix(1 0 0 1 1449.84 322)">Regular</text>
  <text style="stroke:none;fill:black;font-family:sans-serif;font-size:13;text-anchor:middle;" transform="matrix(1 0 0 1 1746.56 322)">Medium</text>
  <text style="stroke:none;fill:black;font-family:sans-serif;font-size:13;text-anchor:middle;" transform="matrix(1 0 0 1 2043.27 322)">Semibold</text>
  <text style="stroke:none;fill:black;font-family:sans-serif;font-size:13;text-anchor:middle;" transform="matrix(1 0 0 1 2339.98 322)">Bold</text>
  <text style="stroke:none;fill:black;font-family:sans-serif;font-size:13;text-anchor:middle;" transform="matrix(1 0 0 1 2636.69 322)">Heavy</text>
  <text style="stroke:none;fill:black;font-family:sans-serif;font-size:13;text-anchor:middle;" transform="matrix(1 0 0 1 2933.4 322)">Black</text>
  <line style="fill:none;stroke:black;opacity:1;stroke-width:0.5;" x1="263" x2="3036" y1="1903" y2="1903"/>
  <g transform="matrix(0.2 0 0 0.2 263 1933)">
   <path d="m46.2402 4.15039c21.7773 0 39.4531-17.627 39.4531-39.4043s-17.6758-39.4043-39.4531-39.4043c-21.7285 0-39.4043 17.627-39.4043 39.4043s17.6758 39.4043 39.4043 39.4043Zm0-7.42188c-17.6758 0-31.9336-14.3066-31.9336-31.9824s14.2578-31.9824 31.9336-31.9824 31.9824 14.3066 31.9824 31.9824-14.3066 31.9824-31.9824 31.9824Zm3.61328-17.7734v-28.4668c0-2.24609-1.46484-3.75977-3.71094-3.75977-2.14844 0-3.61328 1.51367-3.61328 3.75977v28.4668c0 2.19727 1.46484 3.71094 3.61328 3.71094 2.24609 0 3.71094-1.51367 3.71094-3.71094Zm-17.8223-10.5957h28.418c2.19727 0 3.71094-1.46484 3.71094-3.61328 0-2.19727-1.51367-3.71094-3.71094-3.71094h-28.418c-2.24609 0-3.75977 1.51367-3.75977 3.71094 0 2.14844 1.51367 3.61328 3.75977 3.61328Z"/>
  </g>
  <g transform="matrix(0.2 0 0 0.2 281.506 1933)">
   <path d="m58.5449 14.5508c27.4902 0 49.8047-22.3145 49.8047-49.8047s-22.3145-49.8047-49.8047-49.8047-49.8047 22.3145-49.8047 49.8047 22.3145 49.8047 49.8047 49.8047Zm0-8.30078c-22.9492 0-41.5039-18.5547-41.5039-41.5039s18.5547-41.5039 41.5039-41.5039 41.5039 18.5547 41.5039 41.5039-18.5547 41.5039-41.5039 41.5039Zm4.05273-23.0957v-36.9141c0-2.49023-1.70898-4.19922-4.15039-4.19922-2.39258 0-4.05273 1.70898-4.05273 4.19922v36.9141c0 2.44141 1.66016 4.15039 4.05273 4.15039 2.44141 0 4.15039-1.66016 4.15039-4.15039Zm-22.5586-14.4043h36.9629c2.44141 0 4.15039-1.61133 4.15039-4.00391 0-2.44141-1.70898-4.15039-4.15039-4.15039h-36.9629c-2.49023 0-4.15039 1.70898-4.15039 4.15039 0 2.39258 1.66016 4.00391 4.15039 4.00391Z"/>
  </g>
  <g transform="matrix(0.2 0 0 0.2 304.924 1933)">
   <path d="m74.8535 28.3203c35.1074 0 63.623-28.4668 63.623-63.5742s-28.5156-63.623-63.623-63.623-63.5742 28.5156-63.5742 63.623 28.4668 63.5742 63.5742 63.5742Zm0-9.08203c-30.127 0-54.4922-24.3652-54.4922-54.4922s24.3652-54.4922 54.4922-54.4922 54.4922 24.3652 54.4922 54.4922-24.3652 54.4922-54.4922 54.4922Zm4.44336-30.3223v-48.4863c0-2.73438-1.85547-4.63867-4.54102-4.63867-2.58789 0-4.44336 1.9043-4.44336 4.63867v48.4863c0 2.68555 1.85547 4.58984 4.44336 4.58984 2.68555 0 4.54102-1.85547 4.54102-4.58984Zm-28.7109-19.7754h48.4863c2.68555 0 4.58984-1.80664 4.58984-4.39453 0-2.73438-1.85547-4.58984-4.58984-4.58984h-48.4863c-2.73438 0-4.58984 1.85547-4.58984 4.58984 0 2.58789 1.85547 4.39453 4.58984 4.39453Z"/>
  </g>
  <text style="stroke:none;fill:black;font-family:sans-serif;font-size:13;font-weight:bold;" transform="matrix(1 0 0 1 263 1953)">Design Variations</text>
  <text style="stroke:none;fill:black;font-family:sans-serif;font-size:13;" transform="matrix(1 0 0 1 263 1971)">Symbols are supported in up to nine weights and three scales.</text>
  <text style="stroke:none;fill:black;font-family:sans-serif;font-size:13;" transform="matrix(1 0 0 1 263 1989)">For optimal layout with text and other symbols, vertically align</text>
  <text style="stroke:none;fill:black;font-family:sans-serif;font-size:13;" transform="matrix(1 0 0 1 263 2007)">symbols with the adjacent text.</text>
  <line style="fill:none;stroke:#00AEEF;stroke-width:0.5;opacity:1.0;" x1="776" x2="776" y1="1919" y2="1933"/>
  <g transform="matrix(0.2 0 0 0.2 776 1933)">
   <path d="m16.5527 0.78125c2.58789 0 3.85742-0.976562 4.78516-3.71094l20.5566-57.5195h0.244141l20.6055 57.5195c0.927734 2.73438 2.19727 3.71094 4.73633 3.71094 2.58789 0 4.24805-1.5625 4.24805-4.00391 0-0.830078-0.146484-1.61133-0.537109-2.63672l-22.9004-60.9863c-1.12305-2.97852-3.125-4.49219-6.25-4.49219-3.02734 0-5.07812 1.46484-6.15234 4.44336l-22.9004 61.084c-0.390625 1.02539-0.537109 1.80664-0.537109 2.63672 0 2.44141 1.5625 3.95508 4.10156 3.95508Zm10.2051-20.9473h30.6641c2.00195 0 3.66211-1.66016 3.66211-3.66211 0-2.05078-1.66016-3.66211-3.66211-3.66211h-30.6641c-2.00195 0-3.66211 1.61133-3.66211 3.66211 0 2.00195 1.66016 3.66211 3.66211 3.66211Z"/>
  </g>
  <line style="fill:none;stroke:#00AEEF;stroke-width:0.5;opacity:1.0;" x1="792.836" x2="792.836" y1="1919" y2="1933"/>
  <text style="stroke:none;fill:black;font-family:sans-serif;font-size:13;font-weight:bold;" transform="matrix(1 0 0 1 776 1953)">Margins</text>
  <text style="stroke:none;fill:black;font-family:sans-serif;font-size:13;" transform="matrix(1 0 0 1 776 1971)">Leading and trailing margins on the left and right side of each symbol</text>
  <text style="stroke:none;fill:black;font-family:sans-serif;font-size:13;" transform="matrix(1 0 0 1 776 1989)">can be adjusted by modifying the x-location of the margin guidelines.</text>
  <text style="stroke:none;fill:black;font-family:sans-serif;font-size:13;" transform="matrix(1 0 0 1 776 2007)">Modifications are automatically applied proportionally to all</text>
  <text style="stroke:none;fill:black;font-family:sans-serif;font-size:13;" transform="matrix(1 0 0 1 776 2025)">scales and weights.</text>
  <g transform="matrix(0.2 0 0 0.2 1289 1933)">
   <path d="m14.209 13.1348 7.86133 7.86133c4.29688 4.39453 9.32617 4.10156 13.8672-1.02539l60.6934-68.2129-4.88281-4.88281-60.2539 67.6758c-1.80664 1.95312-3.4668 2.44141-5.81055 0.0976562l-5.17578-5.12695c-2.29492-2.29492-1.80664-3.95508 0.195312-5.81055l67.4805-62.1582-4.88281-4.83398-68.0664 62.5977c-4.98047 4.58984-5.32227 9.47266-1.02539 13.8184Zm44.873-97.4609c-2.05078 2.00195-2.24609 4.88281-1.07422 6.78711 1.12305 1.80664 3.4668 3.02734 6.5918 2.24609 5.85938-1.66016 12.5977-2.39258 18.8965 0.927734l-2.68555 7.12891c-1.61133 4.00391-0.732422 6.88477 1.70898 9.42383l10.2539 10.3027c2.34375 2.39258 4.54102 2.44141 7.08008 1.95312l4.44336-0.732422 2.58789 2.53906-0.195312 2.24609c-0.0976562 2.29492 0.537109 4.29688 2.7832 6.49414l3.36914 3.32031c2.29492 2.29492 5.51758 2.49023 7.8125 0.195312l12.9883-13.0371c2.29492-2.34375 2.14844-5.37109-0.195312-7.66602l-3.41797-3.41797c-2.19727-2.19727-4.05273-3.02734-6.34766-2.88086l-2.34375 0.244141-2.44141-2.44141 1.02539-4.6875c0.634766-2.73438-0.244141-4.98047-2.88086-7.61719l-11.2793-11.1816c-12.9395-12.8418-35.5957-11.0352-46.6797-0.146484Zm7.08008 2.05078c8.78906-6.39648 25.9766-5.66406 33.6914 1.95312l12.3047 12.207c1.02539 1.02539 1.2207 1.80664 0.927734 3.32031l-1.46484 6.64062 6.73828 6.68945 4.39453-0.244141c1.12305-0.0488281 1.51367 0.0488281 2.34375 0.878906l2.53906 2.49023-10.8398 10.8398-2.49023-2.49023c-0.830078-0.878906-0.976562-1.2207-0.927734-2.39258l0.292969-4.3457-6.68945-6.73828-6.83594 1.17188c-1.41602 0.292969-2.05078 0.195312-3.17383-0.878906l-8.93555-8.88672c-1.07422-1.02539-1.17188-1.70898-0.488281-3.36914l4.58984-11.4746c-6.10352-6.34766-17.041-7.51953-25.5859-4.58984-0.683594 0.244141-0.927734-0.390625-0.390625-0.78125Z"/>
  </g>
  <text style="stroke:none;fill:black;font-family:sans-serif;font-size:13;font-weight:bold;" transform="matrix(1 0 0 1 1289 1953)">Exporting</text>
  <text style="stroke:none;fill:black;font-family:sans-serif;font-size:13;" transform="matrix(1 0 0 1 1289 1971)">Symbols should be outlined when exporting to ensure the</text>
  <text style="stroke:none;fill:black;font-family:sans-serif;font-size:13;" transform="matrix(1 0 0 1 1289 1989)">design is preserved when submitting to Xcode.</text>
  <text id="template-version" style="stroke:none;fill:black;font-family:sans-serif;font-size:13;text-anchor:end;" transform="matrix(1 0 0 1 3036 1933)">Template v.7.0</text>
  <text style="stroke:none;fill:black;font-family:sans-serif;font-size:13;text-anchor:end;" transform="matrix(1 0 0 1 3036 1951)">Requires Xcode 17 or greater</text>
  <text id="descriptive-name" style="stroke:none;fill:black;font-family:sans-serif;font-size:13;text-anchor:end;" transform="matrix(1 0 0 1 3036 1969)">Tokyo Big Sight SF Symbol</text>
  <text style="stroke:none;fill:black;font-family:sans-serif;font-size:13;text-anchor:end;" transform="matrix(1 0 0 1 3036 1987)">Typeset at 100.0 points</text>
  <text style="stroke:none;fill:black;font-family:sans-serif;font-size:13;" transform="matrix(1 0 0 1 263 726)">Small</text>
  <text style="stroke:none;fill:black;font-family:sans-serif;font-size:13;" transform="matrix(1 0 0 1 263 1156)">Medium</text>
  <text style="stroke:none;fill:black;font-family:sans-serif;font-size:13;" transform="matrix(1 0 0 1 263 1586)">Large</text>
 </g>
 <g id="Guides">
  <g id="H-reference" style="fill:#27AAE1;stroke:none;" transform="matrix(1 0 0 1 339 696)">
   <path d="M0.993654 0L3.63775 0L29.3281-67.1323L30.0303-67.1323L30.0303-70.459L28.1226-70.459ZM11.6885-24.4799L46.9815-24.4799L46.2315-26.7285L12.4385-26.7285ZM55.1196 0L57.7637 0L30.6382-70.459L29.4326-70.459L29.4326-67.1323Z"/>
  </g>
  <line id="Baseline-S" style="fill:none;stroke:#27AAE1;opacity:1;stroke-width:0.5;" x1="263" x2="3036" y1="696" y2="696"/>
  <line id="Capline-S" style="fill:none;stroke:#27AAE1;opacity:1;stroke-width:0.5;" x1="263" x2="3036" y1="625.541" y2="625.541"/>
  <g id="H-reference" style="fill:#27AAE1;stroke:none;" transform="matrix(1 0 0 1 339 1126)">
   <path d="M0.993654 0L3.63775 0L29.3281-67.1323L30.0303-67.1323L30.0303-70.459L28.1226-70.459ZM11.6885-24.4799L46.9815-24.4799L46.2315-26.7285L12.4385-26.7285ZM55.1196 0L57.7637 0L30.6382-70.459L29.4326-70.459L29.4326-67.1323Z"/>
  </g>
  <line id="Baseline-M" style="fill:none;stroke:#27AAE1;opacity:1;stroke-width:0.5;" x1="263" x2="3036" y1="1126" y2="1126"/>
  <line id="Capline-M" style="fill:none;stroke:#27AAE1;opacity:1;stroke-width:0.5;" x1="263" x2="3036" y1="1055.54" y2="1055.54"/>
  <g id="H-reference" style="fill:#27AAE1;stroke:none;" transform="matrix(1 0 0 1 339 1556)">
   <path d="M0.993654 0L3.63775 0L29.3281-67.1323L30.0303-67.1323L30.0303-70.459L28.1226-70.459ZM11.6885-24.4799L46.9815-24.4799L46.2315-26.7285L12.4385-26.7285ZM55.1196 0L57.7637 0L30.6382-70.459L29.4326-70.459L29.4326-67.1323Z"/>
  </g>
  <line id="Baseline-L" style="fill:none;stroke:#27AAE1;opacity:1;stroke-width:0.5;" x1="263" x2="3036" y1="1556" y2="1556"/>
  <line id="Capline-L" style="fill:none;stroke:#27AAE1;opacity:1;stroke-width:0.5;" x1="263" x2="3036" y1="1485.54" y2="1485.54"/>
  <line id="right-margin-Black-S" style="fill:none;stroke:#FF3B30;stroke-width:0.5;opacity:1.0;" x1="2982.23" x2="2982.23" y1="600.785" y2="720.121"/>
  <line id="left-margin-Black-S" style="fill:none;stroke:#FF3B30;stroke-width:0.5;opacity:1.0;" x1="2884.57" x2="2884.57" y1="600.785" y2="720.121"/>
  <line id="right-margin-Regular-S" style="fill:none;stroke:#00AEEF;stroke-width:0.5;opacity:1.0;" x1="1496.11" x2="1496.11" y1="600.785" y2="720.121"/>
  <line id="left-margin-Regular-S" style="fill:none;stroke:#00AEEF;stroke-width:0.5;opacity:1.0;" x1="1403.58" x2="1403.58" y1="600.785" y2="720.121"/>
  <line id="right-margin-Ultralight-S" style="fill:none;stroke:#00AEEF;stroke-width:0.5;opacity:1.0;" x1="603.773" x2="603.773" y1="600.785" y2="720.121"/>
  <line id="left-margin-Ultralight-S" style="fill:none;stroke:#00AEEF;stroke-width:0.5;opacity:1.0;" x1="515.649" x2="515.649" y1="600.785" y2="720.121"/>
 </g>
 <g id="Symbols">
  <g id="Black-S" transform="matrix(1 0 0 1 2884.57 696)">
   <path class="monochrome-0 multicolor-0:tintColor hierarchical-0:secondary SFSymbolsPreviewWireframe" d="M73.0447-28.2098L80.0029-28.2098C81.8438-28.2098 82.9482-28.2098 83.6846-27.9023C84.7461-27.516 85.5823-26.6799 85.9688-25.6184C86.2761-24.8821 86.2761-23.7776 86.2761-21.9368L86.2761-5.27307C86.2761-3.43225 86.2761-2.32776 85.9688-1.59143C85.5823-0.529907 84.7461 0.306274 83.6846 0.692627C82.9482 1 81.8438 1 80.0029 1L73.0447 1C71.2039 1 70.0994 1 69.363 0.692627C68.3015 0.306274 67.4653-0.529907 67.0791-1.59143C66.7715-2.32776 66.7715-3.43225 66.7715-5.27307L66.7715-21.9368C66.7715-23.7776 66.7715-24.8821 67.0791-25.6184C67.4653-26.6799 68.3015-27.516 69.363-27.9023C70.0994-28.2098 71.2039-28.2098 73.0447-28.2098ZM17.7168-28.2098L24.675-28.2098C26.5159-28.2098 27.6204-28.2098 28.3567-27.9023C29.4182-27.516 30.2544-26.6799 30.6409-25.6184C30.9482-24.8821 30.9482-23.7776 30.9482-21.9368L30.9482-5.27307C30.9482-3.43225 30.9482-2.32776 30.6409-1.59143C30.2544-0.529907 29.4182 0.306274 28.3567 0.692627C27.6204 1 26.5159 1 24.675 1L17.7168 1C15.876 1 14.7715 1 14.0352 0.692627C12.9736 0.306274 12.1375-0.529907 11.7512-1.59143C11.4436-2.32776 11.4436-3.43225 11.4436-5.27307L11.4436-21.9368C11.4436-23.7776 11.4436-24.8821 11.7512-25.6184C12.1375-26.6799 12.9736-27.516 14.0352-27.9023C14.7715-28.2098 15.876-28.2098 17.7168-28.2098Z"/>
   <path class="monochrome-1 multicolor-1:tintColor hierarchical-1:tertiary SFSymbolsPreviewWireframe" d="M48.8135-49.8973L57.9045-34.6558L39.7224-34.6558Z"/>
   <path class="monochrome-2 multicolor-2:tintColor hierarchical-2:primary SFSymbolsPreviewWireframe" d="M19.7329-73.9999C18.0698-73.9999 17.0718-74.011 16.4065-73.7333C15.4475-73.3842 14.6924-72.629 14.3433-71.67C14.0657-71.0049 14.0627-70.0068 14.0627-68.3438L14.0627-66.3788L4.68726-66.3788C3.32812-66.4253 2.00952-66.1102 0.813477-65.5087C-1.39648-64.3971-3.11475-62.2844-3.29883-59.656C-3.37646-58.5491-3.05517-57.5039-2.59717-56.5122C-2.54077-56.3906-2.51758-56.2668-2.45679-56.1472C-2.44507-56.1283-2.42627-56.1099-2.41455-56.0911L-1.16553-54.0139L-0.828613-53.4525L1.33276-49.9016L6.35742-41.677L8.86963-37.5507C9.76147-36.1823 10.967-35.0983 12.3784-34.3787C13.7339-33.6877 15.2283-33.3568 16.7292-33.4384L27.4382-33.4384C29.0127-33.3933 30.5728-33.7638 31.9856-34.505C33.0452-35.0609 34.0183-35.8281 34.8206-36.7506L36.8137-40.0349L40.8276-46.6173L48.8699-59.8104L56.898-46.6173L58.7646-43.5577L62.9189-36.7506C63.7214-35.8281 64.6946-35.0609 65.7542-34.505C67.167-33.7638 68.7268-33.3933 70.3015-33.4384L81.0103-33.4384C82.5112-33.3568 84.0059-33.6877 85.3611-34.3787C86.7725-35.0983 87.9783-36.1821 88.8699-37.5507L91.3823-41.677L96.407-49.9016L98.5684-53.4525L98.905-54.0139L100.154-56.0911C100.166-56.1099 100.185-56.1283 100.196-56.1472C100.257-56.2668 100.281-56.3905 100.337-56.5122C100.795-57.5039 101.116-58.5491 101.039-59.656C100.993-60.3132 100.853-60.9519 100.631-61.5367C100.409-62.1215 100.098-62.6672 99.7332-63.1648C99.3679-63.6624 98.9453-64.1169 98.47-64.5122C97.9944-64.9073 97.4788-65.2307 96.9263-65.5087C95.73-66.1102 94.4116-66.4253 93.0525-66.3788L83.7612-66.3788L83.7612-68.3438C83.7612-70.0068 83.7583-71.0049 83.4805-71.67C83.1313-72.629 82.3762-73.3842 81.4172-73.7333C80.7522-74.011 79.7542-73.9999 78.0911-73.9999L71.8032-73.9999C70.1401-73.9999 69.1421-74.011 68.4771-73.7333C67.5178-73.3842 66.7627-72.629 66.4138-71.67C66.136-71.0049 66.1331-70.0068 66.1331-68.3438L66.1331-66.3788L52.8699-66.3788L44.8699-66.3788L31.6768-66.3788L31.6768-68.3438C31.6768-70.0068 31.6877-71.0049 31.4102-71.67C31.061-72.629 30.3059-73.3842 29.3469-73.7333C28.6816-74.011 27.6836-73.9999 26.0205-73.9999L19.7329-73.9999Z"/>
  </g>
  <g id="Regular-S" transform="matrix(1 0 0 1 1403.58 696)">
   <path class="monochrome-0 multicolor-0:tintColor hierarchical-0:secondary SFSymbolsPreviewWireframe" d="M66.5221-27.7573L72.1816-27.7573C73.6788-27.7573 74.5771-27.7573 75.176-27.5072C76.0393-27.193 76.7194-26.5129 77.0337-25.6497C77.2837-25.0508 77.2837-24.1525 77.2837-22.6552L77.2837-9.10205C77.2837-7.60486 77.2837-6.70654 77.0337-6.10767C76.7194-5.24438 76.0393-4.56421 75.176-4.25C74.5771-4 73.6788-4 72.1816-4L66.5221-4C65.0249-4 64.1266-4 63.5277-4.25C62.6643-4.56421 61.9843-5.24438 61.67-6.10767C61.42-6.70654 61.42-7.60486 61.42-9.10205L61.42-22.6552C61.42-24.1525 61.42-25.0508 61.67-25.6497C61.9843-26.5129 62.6643-27.193 63.5277-27.5072C64.1266-27.7573 65.0249-27.7573 66.5221-27.7573ZM21.5221-27.7573L27.1816-27.7573C28.6788-27.7573 29.5771-27.7573 30.176-27.5072C31.0393-27.193 31.7195-26.5129 32.0337-25.6497C32.2837-25.0508 32.2837-24.1525 32.2837-22.6552L32.2837-9.10205C32.2837-7.60486 32.2837-6.70654 32.0337-6.10767C31.7195-5.24438 31.0393-4.56421 30.176-4.25C29.5771-4 28.6788-4 27.1816-4L21.5221-4C20.0249-4 19.1266-4 18.5277-4.25C17.6644-4.56421 16.9843-5.24438 16.67-6.10767C16.42-6.70654 16.42-7.60486 16.42-9.10205L16.42-22.6552C16.42-24.1525 16.42-25.0508 16.67-25.6497C16.9843-26.5129 17.6644-27.193 18.5277-27.5072C19.1266-27.7573 20.0249-27.7573 21.5221-27.7573Z"/>
   <path class="monochrome-1 multicolor-1:tintColor hierarchical-1:tertiary SFSymbolsPreviewWireframe" d="M46.8141-45.3965L54.2081-33L39.42-33Z"/>
   <path class="monochrome-2 multicolor-2:tintColor hierarchical-2:primary SFSymbolsPreviewWireframe" d="M23.1619-65C21.8092-65 20.9976-65.0089 20.4564-64.7831C19.6765-64.4991 19.0623-63.885 18.7784-63.105C18.5525-62.564 18.5502-61.7522 18.5502-60.3995L18.5502-58.8014L10.9247-58.8014C9.81934-58.8392 8.74695-58.583 7.77417-58.0938C5.97656-57.1896 4.57922-55.4714 4.42944-53.3336C4.36633-52.4332 4.62756-51.5831 5.00024-50.7765C5.0459-50.6776 5.06494-50.577 5.11438-50.4797C5.12378-50.4644 5.13904-50.4493 5.14856-50.4341L6.16455-48.7446L6.43848-48.288L8.19653-45.3999L12.2832-38.7106L14.3264-35.3545C15.0518-34.2416 16.0323-33.3599 17.1803-32.7747C18.2827-32.2126 19.4982-31.9435 20.719-32.0099L29.4288-32.0099C30.7096-31.9733 31.9783-32.2747 33.1274-32.8774C33.9891-33.3296 34.7806-33.9535 35.4332-34.7039L37.0542-37.375L40.319-42.7288L46.86-53.4591L53.3894-42.7288L54.9077-40.2402L58.2866-34.7039C58.9392-33.9535 59.7307-33.3296 60.5925-32.8774C61.7416-32.2745 63.0103-31.9733 64.291-32.0099L73.0009-32.0099C74.2217-31.9435 75.4371-32.2126 76.5396-32.7747C77.6875-33.3599 78.6681-34.2415 79.3934-35.3545L81.4368-38.7106L85.5234-45.3999L87.2814-48.288L87.5553-48.7446L88.5713-50.4341C88.5808-50.4493 88.5962-50.4644 88.6055-50.4797C88.6549-50.577 88.6739-50.6776 88.7197-50.7765C89.0923-51.5831 89.3535-52.4332 89.2904-53.3336C89.2538-53.868 89.1399-54.3876 88.9594-54.8632C88.7787-55.3389 88.5259-55.7827 88.2288-56.1874C87.9318-56.592 87.5881-56.9618 87.2014-57.2832C86.8146-57.6046 86.3951-57.8677 85.9458-58.0938C84.9729-58.583 83.9006-58.8392 82.7952-58.8014L75.2383-58.8014L75.2383-60.3995C75.2383-61.7522 75.2358-62.564 75.0099-63.105C74.7261-63.885 74.1119-64.4991 73.3319-64.7831C72.7909-65.0089 71.9791-65 70.6265-65L65.5125-65C64.1598-65 63.3481-65.0089 62.807-64.7831C62.0271-64.4991 61.413-63.885 61.129-63.105C60.9031-62.564 60.9006-61.7522 60.9006-60.3995L60.9006-58.8014L50.1133-58.8014L43.6066-58.8014L32.8762-58.8014L32.8762-60.3995C32.8762-61.7522 32.8853-62.564 32.6594-63.105C32.3755-63.885 31.7614-64.4991 30.9813-64.7831C30.4403-65.0089 29.6285-65 28.2759-65L23.1619-65Z"/>
  </g>
  <g id="Ultralight-S" transform="matrix(1 0 0 1 515.649 696)">
   <path class="monochrome-0 multicolor-0:tintColor hierarchical-0:secondary SFSymbolsPreviewWireframe" d="M63.1189-28.2148L68.3943-28.2148C69.79-28.2148 70.6273-28.2148 71.1855-27.9818C71.9903-27.6888 72.6243-27.0549 72.9172-26.2501C73.1502-25.6919 73.1502-24.8546 73.1502-23.459L73.1502-10.8254C73.1502-9.42993 73.1502-8.59253 72.9172-8.0343C72.6243-7.22949 71.9903-6.59558 71.1855-6.30261C70.6273-6.06958 69.79-6.06958 68.3943-6.06958L63.1189-6.06958C61.7233-6.06958 60.8859-6.06958 60.3277-6.30261C59.5229-6.59558 58.889-7.22949 58.5961-8.0343C58.363-8.59253 58.363-9.42993 58.363-10.8254L58.363-23.459C58.363-24.8546 58.363-25.6919 58.5961-26.2501C58.889-27.0549 59.5229-27.6888 60.3277-27.9818C60.8859-28.2148 61.7233-28.2148 63.1189-28.2148ZM21.1724-28.2148L26.4479-28.2148C27.8434-28.2148 28.6808-28.2148 29.2391-27.9818C30.0438-27.6888 30.6778-27.0549 30.9707-26.2501C31.2037-25.6919 31.2037-24.8546 31.2037-23.459L31.2037-10.8254C31.2037-9.42993 31.2037-8.59253 30.9707-8.0343C30.6778-7.22949 30.0438-6.59558 29.2391-6.30261C28.6808-6.06958 27.8434-6.06958 26.4479-6.06958L21.1724-6.06958C19.7768-6.06958 18.9395-6.06958 18.3812-6.30261C17.5764-6.59558 16.9425-7.22949 16.6496-8.0343C16.4166-8.59253 16.4166-9.42993 16.4166-10.8254L16.4166-23.459C16.4166-24.8546 16.4166-25.6919 16.6496-26.2501C16.9425-27.0549 17.5764-27.6888 18.3812-27.9818C18.9395-28.2148 19.7768-28.2148 21.1724-28.2148Z"/>
   <path class="monochrome-1 multicolor-1:tintColor hierarchical-1:tertiary SFSymbolsPreviewWireframe" d="M44.7482-44.6571L51.6405-33.1018L37.8558-33.1018Z"/>
   <path class="monochrome-2 multicolor-2:tintColor hierarchical-2:primary SFSymbolsPreviewWireframe" d="M22.7009-62.9303C21.4401-62.9303 20.6834-62.9387 20.1791-62.7281C19.452-62.4635 18.8795-61.891 18.6149-61.1639C18.4044-60.6597 18.4021-59.903 18.4021-58.6421L18.4021-57.1525L11.2941-57.1525C10.2637-57.1876 9.2641-56.9489 8.3573-56.4927C6.68176-55.65 5.37921-54.0483 5.23956-52.0555C5.18079-51.2164 5.42426-50.4239 5.77161-49.6721C5.81421-49.58 5.83197-49.4861 5.87799-49.3954C5.88678-49.3811 5.90106-49.3671 5.90997-49.3529L6.85693-47.7781L7.11237-47.3524L8.75098-44.6603L12.5604-38.4249L14.465-35.2965C15.1411-34.259 16.0552-33.4373 17.1252-32.8917C18.1528-32.3679 19.2858-32.1171 20.4238-32.1788L28.5426-32.1788C29.7364-32.1447 30.9191-32.4257 31.9902-32.9875C32.7935-33.4089 33.5312-33.9906 34.1396-34.6901L35.6506-37.1799L38.6938-42.1704L44.7909-52.1726L50.8774-42.1704L52.2926-39.8507L55.4422-34.6901C56.0505-33.9906 56.7883-33.4089 57.5916-32.9875C58.6627-32.4255 59.8454-32.1447 61.0392-32.1788L69.158-32.1788C70.296-32.1171 71.429-32.3679 72.4566-32.8917C73.5267-33.4373 74.4407-34.259 75.1168-35.2965L77.0215-38.4249L80.8308-44.6603L82.4695-47.3524L82.7249-47.7781L83.6719-49.3529C83.6808-49.3671 83.6951-49.3811 83.7038-49.3954C83.7499-49.4861 83.7676-49.5798 83.8102-49.6721C84.1576-50.4239 84.401-51.2164 84.3422-52.0555C84.3081-52.5538 84.2019-53.0381 84.0336-53.4814C83.8652-53.9248 83.6296-54.3385 83.3527-54.7158C83.0757-55.0929 82.7554-55.4376 82.395-55.7373C82.0343-56.0369 81.6434-56.282 81.2245-56.4927C80.3177-56.9489 79.3181-57.1876 78.2877-57.1525L71.2436-57.1525L71.2436-58.6421C71.2436-59.903 71.2413-60.6597 71.0308-61.1639C70.7661-61.891 70.1937-62.4635 69.4666-62.7281C68.9623-62.9387 68.2056-62.9303 66.9448-62.9303L62.1777-62.9303C60.9169-62.9303 60.1602-62.9387 59.6559-62.7281C58.9288-62.4635 58.3564-61.891 58.0917-61.1639C57.8812-60.6597 57.8789-59.903 57.8789-58.6421L57.8789-57.1525L47.8235-57.1525L41.7584-57.1525L31.7561-57.1525L31.7561-58.6421C31.7561-59.903 31.7645-60.6597 31.554-61.1639C31.2893-61.891 30.7168-62.4635 29.9897-62.7281C29.4854-62.9387 28.7288-62.9303 27.4679-62.9303L22.7009-62.9303Z"/>
  </g>
 </g>
</svg>
