<?xml version="1.0" encoding="UTF-8"?>
<!-- Generated by Pixelmator Pro 3.7.1 -->
<svg width="3300" height="2200" viewBox="0 0 3300 2200" xmlns="http://www.w3.org/2000/svg">
    <g id="Notes">
        <path id="artboard" fill="#ffffff" stroke="none" d="M 0 0 L 3300 0 L 3300 2200 L 0 2200 Z"/>
        <path id="path1" fill="none" stroke="#000000" stroke-width="0.5" d="M 263 292 L 3036 292"/>
        <text id="WeightScale-Variations" xml:space="preserve" x="264" y="322" font-family="Helvetica" font-size="13" font-weight="700" fill="#000000">Weight/Scale Variations</text>
        <text id="Ultralight" xml:space="preserve" x="534.352295" y="322" font-family="Helvetica" font-size="13" fill="#000000">Ultralight</text>
        <text id="Thin" xml:space="preserve" x="843.355469" y="322" font-family="Helvetica" font-size="13" fill="#000000">Thin</text>
        <text id="Light" xml:space="preserve" x="1139.405029" y="322" font-family="Helvetica" font-size="13" fill="#000000">Light</text>
        <text id="Regular" xml:space="preserve" x="1427.237305" y="322" font-family="Helvetica" font-size="13" fill="#000000">Regular</text>
        <text id="Medium" xml:space="preserve" x="1723.381836" y="322" font-family="Helvetica" font-size="13" fill="#000000">Medium</text>
        <text id="Semibold" xml:space="preserve" x="2016.401855" y="322" font-family="Helvetica" font-size="13" fill="#000000">Semibold</text>
        <text id="Bold" xml:space="preserve" x="2326.490479" y="322" font-family="Helvetica" font-size="13" fill="#000000">Bold</text>
        <text id="Heavy" xml:space="preserve" x="2618.075928" y="322" font-family="Helvetica" font-size="13" fill="#000000">Heavy</text>
        <text id="Black" xml:space="preserve" x="2917.105469" y="322" font-family="Helvetica" font-size="13" fill="#000000">Black</text>
        <path id="path2" fill="none" stroke="#000000" stroke-width="0.5" d="M 263 1903 L 3036 1903"/>
        <g id="g1">
            <path id="path3" fill="#000000" stroke="none" d="M 272.248047 1933.830078 C 276.603516 1933.830078 280.138672 1930.304688 280.138672 1925.949219 C 280.138672 1921.59375 276.603516 1918.068359 272.248047 1918.068359 C 267.902344 1918.068359 264.367188 1921.59375 264.367188 1925.949219 C 264.367188 1930.304688 267.902344 1933.830078 272.248047 1933.830078 Z M 272.248047 1932.345703 C 268.712891 1932.345703 265.861328 1929.484375 265.861328 1925.949219 C 265.861328 1922.414063 268.712891 1919.552734 272.248047 1919.552734 C 275.783203 1919.552734 278.644531 1922.414063 278.644531 1925.949219 C 278.644531 1929.484375 275.783203 1932.345703 272.248047 1932.345703 Z M 272.970703 1928.791016 L 272.970703 1923.097656 C 272.970703 1922.648438 272.677734 1922.345703 272.228516 1922.345703 C 271.798828 1922.345703 271.505859 1922.648438 271.505859 1923.097656 L 271.505859 1928.791016 C 271.505859 1929.230469 271.798828 1929.533203 272.228516 1929.533203 C 272.677734 1929.533203 272.970703 1929.230469 272.970703 1928.791016 Z M 269.40625 1926.671875 L 275.089844 1926.671875 C 275.529297 1926.671875 275.832031 1926.378906 275.832031 1925.949219 C 275.832031 1925.509766 275.529297 1925.207031 275.089844 1925.207031 L 269.40625 1925.207031 C 268.957031 1925.207031 268.654297 1925.509766 268.654297 1925.949219 C 268.654297 1926.378906 268.957031 1926.671875 269.40625 1926.671875 Z"/>
        </g>
        <g id="g2">
            <path id="path4" fill="#000000" stroke="none" d="M 293.214966 1935.910156 C 298.713013 1935.910156 303.175934 1931.447266 303.175934 1925.949219 C 303.175934 1920.451172 298.713013 1915.988281 293.214966 1915.988281 C 287.716949 1915.988281 283.254028 1920.451172 283.254028 1925.949219 C 283.254028 1931.447266 287.716949 1935.910156 293.214966 1935.910156 Z M 293.214966 1934.25 C 288.625153 1934.25 284.914215 1930.539063 284.914215 1925.949219 C 284.914215 1921.359375 288.625153 1917.648438 293.214966 1917.648438 C 297.80481 1917.648438 301.515747 1921.359375 301.515747 1925.949219 C 301.515747 1930.539063 297.80481 1934.25 293.214966 1934.25 Z M 294.025513 1929.630859 L 294.025513 1922.248047 C 294.025513 1921.75 293.683716 1921.408203 293.195435 1921.408203 C 292.716919 1921.408203 292.384888 1921.75 292.384888 1922.248047 L 292.384888 1929.630859 C 292.384888 1930.119141 292.716919 1930.460938 293.195435 1930.460938 C 293.683716 1930.460938 294.025513 1930.128906 294.025513 1929.630859 Z M 289.513794 1926.75 L 296.906372 1926.75 C 297.394653 1926.75 297.73645 1926.427734 297.73645 1925.949219 C 297.73645 1925.460938 297.394653 1925.119141 296.906372 1925.119141 L 289.513794 1925.119141 C 289.015747 1925.119141 288.683716 1925.460938 288.683716 1925.949219 C 288.683716 1926.427734 289.015747 1926.75 289.513794 1926.75 Z"/>
        </g>
        <g id="g3">
            <path id="path5" fill="#000000" stroke="none" d="M 319.894714 1938.664063 C 326.916168 1938.664063 332.619293 1932.970703 332.619293 1925.949219 C 332.619293 1918.927734 326.916168 1913.224609 319.894714 1913.224609 C 312.87323 1913.224609 307.179871 1918.927734 307.179871 1925.949219 C 307.179871 1932.970703 312.87323 1938.664063 319.894714 1938.664063 Z M 319.894714 1936.847656 C 313.869293 1936.847656 308.996246 1931.974609 308.996246 1925.949219 C 308.996246 1919.923828 313.869293 1915.050781 319.894714 1915.050781 C 325.920105 1915.050781 330.793152 1919.923828 330.793152 1925.949219 C 330.793152 1931.974609 325.920105 1936.847656 319.894714 1936.847656 Z M 320.783386 1930.783203 L 320.783386 1921.085938 C 320.783386 1920.539063 320.412292 1920.158203 319.875153 1920.158203 C 319.357605 1920.158203 318.986481 1920.539063 318.986481 1921.085938 L 318.986481 1930.783203 C 318.986481 1931.320313 319.357605 1931.701172 319.875153 1931.701172 C 320.412292 1931.701172 320.783386 1931.330078 320.783386 1930.783203 Z M 315.041199 1926.828125 L 324.738464 1926.828125 C 325.275574 1926.828125 325.656433 1926.466797 325.656433 1925.949219 C 325.656433 1925.402344 325.285339 1925.03125 324.738464 1925.03125 L 315.041199 1925.03125 C 314.494324 1925.03125 314.12323 1925.402344 314.12323 1925.949219 C 314.12323 1926.466797 314.494324 1926.828125 315.041199 1926.828125 Z"/>
        </g>
        <text id="Design-Variations" xml:space="preserve" x="264" y="1953" font-family="Helvetica" font-size="13" font-weight="700" fill="#000000">Design Variations</text>
        <text id="Symbols-are-supported-in" xml:space="preserve" x="264" y="1971" font-family="Helvetica" font-size="13" fill="#000000">Symbols are supported in up to nine weights and three scales.</text>
        <text id="For-optimal-layout-with" xml:space="preserve" x="264" y="1989" font-family="Helvetica" font-size="13" fill="#000000">For optimal layout with text and other symbols, vertically align</text>
        <text id="symbols-with-the-adjacent" xml:space="preserve" x="264" y="2007" font-family="Helvetica" font-size="13" fill="#000000">symbols with the adjacent text.</text>
        <path id="path6" fill="none" stroke="#00aeef" stroke-width="0.5" d="M 776 1919 L 776 1933"/>
        <g id="g4">
            <path id="path7" fill="#000000" stroke="none" d="M 779.310547 1933.15625 C 779.828125 1933.15625 780.082031 1932.960938 780.267578 1932.414063 L 784.378906 1920.910156 L 784.427734 1920.910156 L 788.548828 1932.414063 C 788.734375 1932.960938 788.988281 1933.15625 789.496094 1933.15625 C 790.013672 1933.15625 790.345703 1932.84375 790.345703 1932.355469 C 790.345703 1932.189453 790.316406 1932.033203 790.238281 1931.828125 L 785.658203 1919.630859 C 785.433594 1919.035156 785.033203 1918.732422 784.408203 1918.732422 C 783.802734 1918.732422 783.392578 1919.025391 783.177734 1919.621094 L 778.597656 1931.837891 C 778.519531 1932.042969 778.490234 1932.199219 778.490234 1932.365234 C 778.490234 1932.853516 778.802734 1933.15625 779.310547 1933.15625 Z M 781.351563 1928.966797 L 787.484375 1928.966797 C 787.884766 1928.966797 788.216797 1928.634766 788.216797 1928.234375 C 788.216797 1927.824219 787.884766 1927.501953 787.484375 1927.501953 L 781.351563 1927.501953 C 780.951172 1927.501953 780.619141 1927.824219 780.619141 1928.234375 C 780.619141 1928.634766 780.951172 1928.966797 781.351563 1928.966797 Z"/>
        </g>
        <path id="path8" fill="none" stroke="#00aeef" stroke-width="0.5" d="M 792.835999 1919 L 792.835999 1933"/>
        <text id="Margins" xml:space="preserve" x="777" y="1953" font-family="Helvetica" font-size="13" font-weight="700" fill="#000000">Margins</text>
        <text id="Leading-and-trailing-margins" xml:space="preserve" x="777" y="1971" font-family="Helvetica" font-size="13" fill="#000000">Leading and trailing margins on the left and right side of each symbol</text>
        <text id="can-be-adjusted-by" xml:space="preserve" x="777" y="1989" font-family="Helvetica" font-size="13" fill="#000000">can be adjusted by modifying the x-location of the margin guidelines.</text>
        <text id="Modifications-are-automatically-applied" xml:space="preserve" x="777" y="2007" font-family="Helvetica" font-size="13" fill="#000000">Modifications are automatically applied proportionally to all</text>
        <text id="scales-and-weights" xml:space="preserve" x="777" y="2025" font-family="Helvetica" font-size="13" fill="#000000">scales and weights.</text>
        <g id="g5">
            <path id="path9" fill="#000000" stroke="none" d="M 1291.841797 1935.626953 L 1293.414063 1937.199219 C 1294.273438 1938.078125 1295.279297 1938.019531 1296.1875 1936.994141 L 1308.326172 1923.351563 L 1307.349609 1922.375 L 1295.298828 1935.910156 C 1294.9375 1936.300781 1294.605469 1936.398438 1294.136719 1935.929688 L 1293.101563 1934.904297 C 1292.642578 1934.445313 1292.740234 1934.113281 1293.140625 1933.742188 L 1306.636719 1921.310547 L 1305.660156 1920.34375 L 1292.046875 1932.863281 C 1291.050781 1933.78125 1290.982422 1934.757813 1291.841797 1935.626953 Z M 1300.816406 1916.134766 C 1300.40625 1916.535156 1300.367188 1917.111328 1300.601563 1917.492188 C 1300.826172 1917.853516 1301.294922 1918.097656 1301.919922 1917.941406 C 1303.091797 1917.609375 1304.439453 1917.462891 1305.699219 1918.126953 L 1305.162109 1919.552734 C 1304.839844 1920.353516 1305.015625 1920.929688 1305.503906 1921.4375 L 1307.554688 1923.498047 C 1308.023438 1923.976563 1308.462891 1923.986328 1308.970703 1923.888672 L 1309.859375 1923.742188 L 1310.376953 1924.25 L 1310.337891 1924.699219 C 1310.318359 1925.158203 1310.445313 1925.558594 1310.894531 1925.998047 L 1311.568359 1926.662109 C 1312.027344 1927.121094 1312.671875 1927.160156 1313.130859 1926.701172 L 1315.728516 1924.09375 C 1316.1875 1923.625 1316.158203 1923.019531 1315.689453 1922.560547 L 1315.005859 1921.876953 C 1314.566406 1921.4375 1314.195313 1921.271484 1313.736328 1921.300781 L 1313.267578 1921.349609 L 1312.779297 1920.861328 L 1312.984375 1919.923828 C 1313.111328 1919.376953 1312.935547 1918.927734 1312.408203 1918.400391 L 1310.152344 1916.164063 C 1307.564453 1913.595703 1303.033203 1913.957031 1300.816406 1916.134766 Z M 1302.232422 1916.544922 C 1303.990234 1915.265625 1307.427734 1915.412109 1308.970703 1916.935547 L 1311.431641 1919.376953 C 1311.636719 1919.582031 1311.675781 1919.738281 1311.617188 1920.041016 L 1311.324219 1921.369141 L 1312.671875 1922.707031 L 1313.550781 1922.658203 C 1313.775391 1922.648438 1313.853516 1922.667969 1314.019531 1922.833984 L 1314.527344 1923.332031 L 1312.359375 1925.5 L 1311.861328 1925.001953 C 1311.695313 1924.826172 1311.666016 1924.757813 1311.675781 1924.523438 L 1311.734375 1923.654297 L 1310.396484 1922.306641 L 1309.029297 1922.541016 C 1308.746094 1922.599609 1308.619141 1922.580078 1308.394531 1922.365234 L 1306.607422 1920.587891 C 1306.392578 1920.382813 1306.373047 1920.246094 1306.509766 1919.914063 L 1307.427734 1917.619141 C 1306.207031 1916.349609 1304.019531 1916.115234 1302.310547 1916.701172 C 1302.173828 1916.75 1302.125 1916.623047 1302.232422 1916.544922 Z"/>
        </g>
        <text id="Exporting" xml:space="preserve" x="1290" y="1953" font-family="Helvetica" font-size="13" font-weight="700" fill="#000000">Exporting</text>
        <text id="Symbols-should-be-outlined" xml:space="preserve" x="1290" y="1971" font-family="Helvetica" font-size="13" fill="#000000">Symbols should be outlined when exporting to ensure the</text>
        <text id="design-is-preserved-when" xml:space="preserve" x="1290" y="1989" font-family="Helvetica" font-size="13" fill="#000000">design is preserved when submitting to Xcode.</text>
        <text id="template-version" xml:space="preserve" x="2951.414063" y="1933" font-family="Helvetica" font-size="13" fill="#000000">Template v.7.0</text>
        <text id="Requires-Xcode-17-or" xml:space="preserve" x="2864.45752" y="1951" font-family="Helvetica" font-size="13" fill="#000000">Requires Xcode 17 or greater</text>
        <text id="Circlems-SF-Symbol" xml:space="preserve" x="2913.651855" y="1969" font-family="Helvetica" font-size="13" fill="#000000">Circle.ms SF Symbol</text>
        <text id="Typeset-at-1000-points" xml:space="preserve" x="2900.569336" y="1987" font-family="Helvetica" font-size="13" fill="#000000">Typeset at 100.0 points</text>
        <text id="Small" xml:space="preserve" x="264" y="726" font-family="Helvetica" font-size="13" fill="#000000">Small</text>
        <text id="text1" xml:space="preserve" x="264" y="1156" font-family="Helvetica" font-size="13" fill="#000000">Medium</text>
        <text id="Large" xml:space="preserve" x="264" y="1586" font-family="Helvetica" font-size="13" fill="#000000">Large</text>
    </g>
    <g id="Guides">
        <g id="H-reference">
            <path id="path10" fill="#27aae1" stroke="none" d="M 339.993652 696 L 342.637756 696 L 368.328094 628.867676 L 369.030304 628.867676 L 369.030304 625.541016 L 367.122589 625.541016 Z M 350.688507 671.520142 L 385.981506 671.520142 L 385.231506 669.271484 L 351.438507 669.271484 Z M 394.119598 696 L 396.763702 696 L 369.638214 625.541016 L 368.432587 625.541016 L 368.432587 628.867676 Z"/>
        </g>
        <path id="Baseline-S" fill="none" stroke="#27aae1" stroke-width="0.5" d="M 263 696 L 3036 696"/>
        <path id="Capline-S" fill="none" stroke="#27aae1" stroke-width="0.5" d="M 263 625.541016 L 3036 625.541016"/>
        <g id="g6">
            <path id="path11" fill="#27aae1" stroke="none" d="M 339.993652 1126 L 342.637756 1126 L 368.328094 1058.867676 L 369.030304 1058.867676 L 369.030304 1055.541016 L 367.122589 1055.541016 Z M 350.688507 1101.520142 L 385.981506 1101.520142 L 385.231506 1099.271484 L 351.438507 1099.271484 Z M 394.119598 1126 L 396.763702 1126 L 369.638214 1055.541016 L 368.432587 1055.541016 L 368.432587 1058.867676 Z"/>
        </g>
        <path id="Baseline-M" fill="none" stroke="#27aae1" stroke-width="0.5" d="M 263 1126 L 3036 1126"/>
        <path id="Capline-M" fill="none" stroke="#27aae1" stroke-width="0.5" d="M 263 1055.540039 L 3036 1055.540039"/>
        <g id="g7">
            <path id="path12" fill="#27aae1" stroke="none" d="M 339.993652 1556 L 342.637756 1556 L 368.328094 1488.867676 L 369.030304 1488.867676 L 369.030304 1485.541016 L 367.122589 1485.541016 Z M 350.688507 1531.52002 L 385.981506 1531.52002 L 385.231506 1529.271484 L 351.438507 1529.271484 Z M 394.119598 1556 L 396.763702 1556 L 369.638214 1485.541016 L 368.432587 1485.541016 L 368.432587 1488.867676 Z"/>
        </g>
        <path id="Baseline-L" fill="none" stroke="#27aae1" stroke-width="0.5" d="M 263 1556 L 3036 1556"/>
        <path id="Capline-L" fill="none" stroke="#27aae1" stroke-width="0.5" d="M 263 1485.540039 L 3036 1485.540039"/>
        <path id="right-margin-Black-S" fill="none" stroke="#00aeef" stroke-width="0.5" d="M 2982.22998 600.784912 L 2982.22998 720.120972"/>
        <path id="left-margin-Black-S" fill="none" stroke="#00aeef" stroke-width="0.5" d="M 2884.570068 600.784912 L 2884.570068 720.120972"/>
        <path id="right-margin-Regular-S" fill="none" stroke="#00aeef" stroke-width="0.5" d="M 1496.109985 600.784912 L 1496.109985 720.120972"/>
        <path id="left-margin-Regular-S" fill="none" stroke="#00aeef" stroke-width="0.5" d="M 1403.579956 600.784912 L 1403.579956 720.120972"/>
        <path id="right-margin-Ultralight-S" fill="none" stroke="#00aeef" stroke-width="0.5" d="M 603.77301 600.784912 L 603.77301 720.120972"/>
        <path id="left-margin-Ultralight-S" fill="none" stroke="#00aeef" stroke-width="0.5" d="M 515.648987 600.784912 L 515.648987 720.120972"/>
    </g>
    <g id="Symbols">
        <g id="Black-S">
            <path id="Circlems" fill="none" stroke="#000000" stroke-width="0.5" d="M 2904.700195 631.295044 C 2912.899414 623.095947 2923.655029 619 2934.401855 619 C 2945.150391 619 2955.904297 623.095947 2964.105225 631.295044 C 2967.843506 635.035278 2970.680908 639.31897 2972.715576 643.87793 L 2965.378174 645.921509 C 2963.744141 642.565674 2961.564697 639.410156 2958.777344 636.622803 C 2952.046143 629.891602 2943.224854 626.521484 2934.401855 626.521484 C 2925.580566 626.521484 2916.757568 629.891602 2910.028076 636.622803 C 2896.56543 650.085327 2896.56543 671.911499 2910.028076 685.372192 C 2923.48877 698.834717 2945.314941 698.834717 2958.777344 685.372192 C 2966.130859 678.018799 2969.441895 668.171265 2968.760742 658.552612 L 2976.149902 656.491211 C 2977.460449 668.691528 2973.453857 681.351318 2964.105225 690.700073 C 2947.703369 707.099976 2921.100342 707.099976 2904.700195 690.700073 C 2888.300293 674.300049 2888.300293 647.696777 2904.700195 631.295044 Z M 2926.411865 630.810547 C 2918.488281 632.816528 2911.379639 637.960205 2907.062012 645.685425 C 2898.689453 660.671265 2903.997559 679.692261 2918.922607 688.170166 C 2926.395752 692.416382 2934.866699 693.211914 2942.509766 691.068359 L 2940.584229 684.167236 C 2934.711182 685.815552 2928.205078 685.213135 2922.457275 681.939575 C 2910.986328 675.403198 2906.88501 660.75354 2913.310547 649.221802 C 2916.657471 643.214722 2922.20874 639.286743 2928.371338 637.779541 L 2926.427979 630.810547 C 2926.42627 630.810547 2926.424561 630.810303 2926.422607 630.810181 C 2926.419189 630.809814 2926.415527 630.809326 2926.411865 630.810547 Z M 2915.685547 661.08313 L 2918.081299 670.208374 L 2920.291016 669.478882 L 2917.873779 660.275024 L 2915.685547 661.08313 Z M 2922.055176 660.915894 L 2921.625977 659.29248 L 2919.559326 660.064819 L 2921.955078 669.190063 L 2924.171875 668.460571 L 2923.034912 664.141113 C 2922.586182 662.430176 2923.188477 661.357422 2924.844238 660.922974 L 2924.987061 658.334229 C 2924.143311 658.562988 2923.517578 658.845581 2923.113525 659.178101 C 2922.621826 659.574951 2922.283936 660.148926 2922.0979 660.901611 L 2922.055176 660.915894 Z M 2933.536621 657.200073 L 2932.785889 659.195313 C 2931.931152 658.943237 2931.237549 658.885986 2930.704834 659.023682 C 2929.864502 659.24353 2929.23877 659.67981 2928.823975 660.332397 C 2928.40918 660.986694 2928.30542 661.712646 2928.516357 662.51355 C 2928.711426 663.257324 2929.161865 663.833008 2929.868164 664.237061 C 2930.540283 664.614258 2931.1875 664.721558 2931.813232 664.558838 C 2932.560547 664.364014 2933.223877 663.943848 2933.80127 663.300171 L 2935.460449 664.587524 C 2934.897217 665.545776 2933.872803 666.221558 2932.385254 666.611328 C 2931.135742 666.936768 2929.921631 666.793701 2928.745361 666.182251 C 2927.458008 665.524292 2926.625 664.478394 2926.242188 663.042725 C 2925.895508 661.703613 2926.095703 660.445068 2926.843018 659.266846 C 2927.575928 658.12793 2928.613037 657.382446 2929.953857 657.028442 C 2931.072998 656.733398 2932.267334 656.790649 2933.536621 657.200073 Z M 2936.761963 665.301147 L 2938.97168 664.571655 L 2935.703613 652.142578 L 2933.536621 653.022217 L 2936.761963 665.301147 Z M 2948.709717 661.043213 L 2947.243652 659.362671 C 2946.356934 660.360229 2945.469971 660.97168 2944.583252 661.200562 C 2943.696533 661.434814 2943.031494 661.289917 2942.588135 660.764282 L 2947.744141 655.322144 C 2947.123779 654.592651 2946.364014 654.075928 2945.462891 653.770264 C 2944.561768 653.460938 2943.653564 653.427002 2942.738281 653.670166 C 2941.388428 654.02417 2940.338867 654.792847 2939.591553 655.97998 C 2938.844238 657.163574 2938.645752 658.422241 2938.998047 659.755981 C 2939.34668 661.091553 2940.136963 662.092651 2941.372314 662.759521 C 2942.605957 663.428223 2943.898438 663.585571 2945.248291 663.231567 C 2946.615967 662.870361 2947.769287 662.140991 2948.709717 661.043213 Z M 2951.070068 658.182617 C 2951.36499 658.100342 2951.769043 658.009155 2951.951416 658.03772 C 2952.357178 658.068115 2952.730957 658.279053 2952.96875 658.611694 C 2953.08667 658.751099 2953.217285 659.144409 2953.299561 659.439453 C 2953.381592 659.734375 2953.474609 660.138428 2953.444336 660.319092 C 2953.413818 660.726685 2953.20459 661.098511 2952.87207 661.336304 C 2952.730957 661.456177 2952.337646 661.58667 2952.04248 661.668823 C 2951.749268 661.751099 2951.345215 661.844116 2951.163086 661.813721 C 2950.755371 661.783325 2950.383545 661.572388 2950.145752 661.241577 C 2950.025879 661.100342 2949.895264 660.707031 2949.813232 660.411987 C 2949.730957 660.118774 2949.639648 659.713013 2949.668213 659.532349 C 2949.700439 659.124756 2949.909668 658.75293 2950.242188 658.515137 C 2950.381592 658.395264 2950.774902 658.264771 2951.070068 658.182617 Z M 2953.007568 651.27832 L 2955.40332 660.403564 L 2957.620117 659.674072 L 2956.168457 654.146118 C 2955.85376 652.94458 2956.168457 652.220581 2957.112305 651.972046 C 2957.988525 651.743164 2958.542725 652.068604 2958.771484 652.94458 L 2960.387695 659.094849 L 2962.597656 658.365356 L 2961.145752 652.837402 C 2960.831055 651.635986 2961.142334 650.911865 2962.082764 650.66333 C 2962.95874 650.434448 2963.512939 650.759888 2963.741699 651.635986 L 2965.35791 657.786133 L 2967.567871 657.063843 L 2965.880127 650.649048 C 2965.631592 649.696167 2965.125488 649.039917 2964.364014 648.682373 C 2963.720215 648.387451 2963.001709 648.344482 2962.211426 648.553711 C 2961.304932 648.793213 2960.561279 649.397583 2959.980225 650.370117 C 2959.139893 649.769409 2958.265625 649.588867 2957.355469 649.82666 C 2956.849609 649.960693 2956.447266 650.182373 2956.146973 650.491699 C 2955.907389 650.72054 2955.649902 651.10673 2955.374512 651.650269 L 2955.074219 650.505981 L 2953.007568 651.27832 Z M 2917.738037 657.958008 L 2915.821289 656.856689 L 2914.69873 658.758911 L 2916.608154 659.867432 L 2917.738037 657.958008 Z M 2944.833496 655.736938 L 2941.286377 659.398438 C 2941.223877 659.266113 2941.159424 659.069458 2941.093506 658.812012 C 2940.968262 658.096802 2941.096924 657.424683 2941.479492 656.795288 C 2941.865723 656.166016 2942.405762 655.758301 2943.103027 655.572388 C 2943.760986 655.400757 2944.33667 655.456177 2944.833496 655.736938 Z M 2969.415039 653.845581 L 2968.378174 655.604736 C 2969.459961 656.353882 2970.713135 656.539795 2972.139893 656.162598 C 2973.141113 655.901611 2973.922363 655.436768 2974.485596 654.768066 C 2975.114746 654.038574 2975.300781 653.191162 2975.043213 652.222168 C 2974.794922 651.269287 2974.224609 650.661377 2973.334229 650.39856 C 2973.005127 650.309204 2972.227539 650.246582 2971.002686 650.212646 C 2970.176758 650.194702 2969.715576 649.996338 2969.615479 649.619019 C 2969.447266 648.989746 2969.724365 648.582153 2970.445068 648.396118 C 2971.020752 648.244181 2971.664307 648.394368 2972.375732 648.84668 L 2973.505859 647.151855 C 2972.370361 646.408081 2971.133301 646.211426 2969.794189 646.558228 C 2968.893066 646.797852 2968.195801 647.226929 2967.69873 647.845459 C 2967.146484 648.532104 2966.987305 649.315186 2967.219727 650.191162 C 2967.477051 651.183472 2968.058105 651.818115 2968.95752 652.093506 C 2969.252441 652.179321 2970.037354 652.257935 2971.310303 652.329468 C 2972.139893 652.377686 2972.608154 652.606567 2972.718994 653.015991 C 2972.779785 653.255493 2972.715576 653.502319 2972.526123 653.759766 C 2972.334717 654.01355 2972.061279 654.187012 2971.703613 654.281738 C 2970.945557 654.478394 2970.182129 654.331787 2969.415039 653.845581 Z"/>
        </g>
        <g id="Regular-S">
            <path id="path13" fill="none" stroke="#000000" stroke-width="0.5" d="M 1422.23877 632.261597 C 1429.988281 624.511963 1440.154297 620.640625 1450.31189 620.640625 C 1460.471069 620.640625 1470.635498 624.511963 1478.386719 632.261597 C 1481.920166 635.796753 1484.601929 639.845581 1486.524902 644.154663 L 1479.589844 646.08606 C 1478.04541 642.914307 1475.985474 639.931763 1473.350952 637.297241 C 1466.98877 630.935059 1458.651123 627.749756 1450.31189 627.749756 C 1441.974243 627.749756 1433.634888 630.935059 1427.274414 637.297241 C 1414.550049 650.021729 1414.550049 670.651123 1427.274414 683.373901 C 1439.997192 696.098267 1460.626587 696.098267 1473.350952 683.373901 C 1480.30127 676.423584 1483.430786 667.115967 1482.786987 658.02478 L 1489.771118 656.076294 C 1491.009766 667.607788 1487.222778 679.573486 1478.386719 688.409546 C 1462.884155 703.9104 1437.739502 703.9104 1422.23877 688.409546 C 1406.737915 672.908691 1406.737915 647.764038 1422.23877 632.261597 Z M 1442.76001 631.803589 C 1435.270752 633.699585 1428.55188 638.561279 1424.470947 645.863037 C 1416.557495 660.027222 1421.574585 678.005249 1435.681274 686.018433 C 1442.744873 690.031738 1450.751221 690.783813 1457.97522 688.75769 L 1456.155273 682.234863 C 1450.604248 683.792969 1444.454956 683.223511 1439.022095 680.129395 C 1428.180176 673.951416 1424.303711 660.104858 1430.376953 649.205566 C 1433.540283 643.52771 1438.787231 639.815063 1444.612061 638.390625 L 1442.775269 631.803589 C 1442.77356 631.803589 1442.771851 631.803467 1442.770142 631.803223 C 1442.766724 631.802856 1442.763428 631.80249 1442.76001 631.803589 Z M 1432.621704 660.416504 L 1434.886108 669.041382 L 1436.974731 668.351929 L 1434.690063 659.65271 L 1432.621704 660.416504 Z M 1438.64209 660.258423 L 1438.23645 658.723999 L 1436.283081 659.453979 L 1438.547363 668.078857 L 1440.642822 667.389404 L 1439.568115 663.306763 C 1439.143921 661.689697 1439.713379 660.675781 1441.278198 660.265137 L 1441.41333 657.818237 C 1440.615723 658.034546 1440.024292 658.301514 1439.642456 658.615845 C 1439.177734 658.990967 1438.858276 659.533447 1438.682617 660.244873 L 1438.64209 660.258423 Z M 1449.494141 656.746338 L 1448.784424 658.632202 C 1447.976685 658.393921 1447.321045 658.339844 1446.817505 658.469971 C 1446.023315 658.677734 1445.431763 659.090088 1445.039795 659.706909 C 1444.647705 660.325317 1444.549683 661.011475 1444.749146 661.768433 C 1444.93335 662.471436 1445.359131 663.015625 1446.026611 663.397461 C 1446.661987 663.754028 1447.273682 663.855469 1447.865112 663.70166 C 1448.571533 663.517456 1449.198486 663.120361 1449.744263 662.511963 L 1451.312378 663.728638 C 1450.780151 664.634399 1449.81189 665.273193 1448.405884 665.641602 C 1447.224731 665.949097 1446.077393 665.813965 1444.965454 665.235962 C 1443.748779 664.614136 1442.961304 663.62561 1442.599609 662.268677 C 1442.271851 661.00293 1442.46106 659.813354 1443.16748 658.699707 C 1443.860229 657.623291 1444.840332 656.918701 1446.107788 656.584106 C 1447.165527 656.305298 1448.294434 656.359375 1449.494141 656.746338 Z M 1452.542603 664.403198 L 1454.631226 663.713745 L 1451.542236 651.966064 L 1449.494141 652.797485 L 1452.542603 664.403198 Z M 1463.835205 660.378784 L 1462.449585 658.790283 C 1461.61145 659.733276 1460.773193 660.311157 1459.935059 660.527466 C 1459.096924 660.748779 1458.468262 660.611938 1458.049194 660.115112 L 1462.922729 654.971313 C 1462.336304 654.28186 1461.618164 653.793457 1460.766479 653.504517 C 1459.914795 653.212158 1459.056396 653.180054 1458.191162 653.409912 C 1456.915405 653.744507 1455.923462 654.471069 1455.217041 655.59314 C 1454.510742 656.711792 1454.32312 657.901489 1454.656006 659.162109 C 1454.985596 660.424438 1455.732422 661.370728 1456.900146 662.000977 C 1458.066162 662.632935 1459.287842 662.781738 1460.563721 662.447144 C 1461.856445 662.105713 1462.946411 661.41626 1463.835205 660.378784 Z M 1466.066162 657.674927 C 1466.344971 657.597168 1466.726929 657.510986 1466.899292 657.538086 C 1467.282837 657.566772 1467.635986 657.766235 1467.860718 658.080444 C 1467.97229 658.21228 1468.095581 658.584106 1468.17334 658.862915 C 1468.251099 659.141724 1468.338989 659.52356 1468.310303 659.694336 C 1468.281494 660.07959 1468.083862 660.43103 1467.769531 660.655762 C 1467.635986 660.769043 1467.264282 660.892334 1466.985474 660.970093 C 1466.708252 661.047852 1466.326416 661.135742 1466.154053 661.106934 C 1465.768799 661.078247 1465.417236 660.878906 1465.192505 660.566284 C 1465.079346 660.432739 1464.955933 660.060913 1464.878174 659.782104 C 1464.800415 659.505005 1464.714233 659.12146 1464.741333 658.950806 C 1464.771729 658.56543 1464.969482 658.213989 1465.283813 657.989258 C 1465.415527 657.875977 1465.787354 657.752686 1466.066162 657.674927 Z M 1467.897461 651.149292 L 1470.161743 659.77417 L 1472.257202 659.084717 L 1470.88501 653.859741 C 1470.587646 652.724243 1470.88501 652.039795 1471.777222 651.804932 C 1472.605347 651.588623 1473.12915 651.896118 1473.345459 652.724243 L 1474.873047 658.537231 L 1476.96167 657.847778 L 1475.589478 652.622803 C 1475.292114 651.487183 1475.586182 650.802856 1476.474976 650.567993 C 1477.302979 650.351685 1477.826904 650.65918 1478.043213 651.487183 L 1479.570801 657.300293 L 1481.659424 656.617554 L 1480.064209 650.554443 C 1479.829346 649.653809 1479.351074 649.033569 1478.631226 648.695679 C 1478.022827 648.416748 1477.343628 648.376221 1476.59668 648.573975 C 1475.739868 648.800415 1475.036987 649.371582 1474.487793 650.290771 C 1473.693481 649.723022 1472.867188 649.552368 1472.00708 649.7771 C 1471.528809 649.903809 1471.148682 650.113403 1470.864746 650.405762 C 1470.638346 650.62207 1470.39502 650.987061 1470.134766 651.500732 L 1469.85083 650.419312 L 1467.897461 651.149292 Z M 1434.561646 657.462646 L 1432.750122 656.421753 L 1431.688965 658.219727 L 1433.493652 659.267456 L 1434.561646 657.462646 Z M 1460.171631 655.363281 L 1456.819092 658.824097 C 1456.759888 658.699097 1456.699097 658.513184 1456.636475 658.269897 C 1456.518188 657.593872 1456.639893 656.958496 1457.001587 656.36377 C 1457.366577 655.768921 1457.876831 655.383667 1458.535889 655.207886 C 1459.157715 655.045654 1459.701904 655.098022 1460.171631 655.363281 Z M 1483.405518 653.575684 L 1482.425415 655.238525 C 1483.447754 655.946533 1484.632324 656.122314 1485.980835 655.765747 C 1486.927124 655.519043 1487.665527 655.07959 1488.197876 654.447632 C 1488.792725 653.758179 1488.968384 652.957275 1488.725098 652.041382 C 1488.490234 651.140625 1487.951172 650.566162 1487.109619 650.317749 C 1486.798706 650.233154 1486.063599 650.174072 1484.906006 650.141968 C 1484.125366 650.125 1483.689331 649.9375 1483.594727 649.580933 C 1483.435913 648.986084 1483.697876 648.60083 1484.378784 648.425049 C 1484.922974 648.281413 1485.531331 648.423381 1486.203857 648.850952 L 1487.271851 647.249023 C 1486.19873 646.546021 1485.029419 646.360107 1483.763794 646.687988 C 1482.912109 646.914429 1482.253052 647.319946 1481.783203 647.904663 C 1481.261108 648.553467 1481.110718 649.293701 1481.330444 650.121704 C 1481.57373 651.05957 1482.122925 651.659424 1482.9729 651.919678 C 1483.251709 652.000732 1483.99353 652.075073 1485.196777 652.1427 C 1485.980835 652.188354 1486.423584 652.404663 1486.52832 652.791626 C 1486.585815 653.018066 1486.524902 653.251221 1486.345825 653.494629 C 1486.165039 653.734497 1485.906494 653.898438 1485.568481 653.988037 C 1484.852051 654.17395 1484.130493 654.035278 1483.405518 653.575684 Z"/>
        </g>
        <g id="Ultralight-S">
            <path id="path14" fill="none" stroke="#000000" stroke-width="0.5" d="M 533.633728 633.129272 C 541.055359 625.707642 550.791199 622 560.518982 622 C 570.248413 622 579.982666 625.707642 587.405884 633.129272 C 590.789856 636.514771 593.358093 640.392334 595.199768 644.519043 L 588.558167 646.368774 C 587.078979 643.331177 585.106262 640.474854 582.583313 637.951904 C 576.490295 631.858887 568.505432 628.80835 560.518982 628.80835 C 552.53418 628.80835 544.547729 631.858887 538.456299 637.951904 C 526.270325 650.137939 526.270325 669.894409 538.456299 682.078857 C 550.640686 694.264893 570.397278 694.264893 582.583313 682.078857 C 589.239502 675.422607 592.236633 666.508911 591.620056 657.802246 L 598.308594 655.936401 C 599.494812 666.979858 595.868164 678.439209 587.405884 686.901489 C 572.559387 701.746338 548.478638 701.746338 533.633728 686.901489 C 518.788757 672.056519 518.788757 647.97583 533.633728 633.129272 Z M 553.286682 632.690674 C 546.114258 634.50647 539.679749 639.162354 535.771484 646.155151 C 528.192871 659.719971 532.997681 676.937378 546.507507 684.611572 C 553.272095 688.455078 560.939758 689.175171 567.858093 687.234863 L 566.115173 680.988037 C 560.79895 682.480225 554.909851 681.934814 549.70697 678.97168 C 539.32373 673.055054 535.611267 659.794434 541.427551 649.356201 C 544.457092 643.918701 549.481995 640.363159 555.060364 638.998901 L 553.30127 632.690674 C 553.299622 632.690674 553.298035 632.690552 553.296387 632.690308 C 553.293152 632.689941 553.289917 632.689575 553.286682 632.690674 Z M 543.577332 660.092896 L 545.745911 668.352783 L 547.746155 667.692505 L 545.558167 659.361328 L 543.577332 660.092896 Z M 549.342957 659.941406 L 548.954529 658.471924 L 547.08374 659.171143 L 549.252319 667.43103 L 551.259033 666.770752 L 550.229797 662.86084 C 549.823608 661.312134 550.368958 660.341187 551.867554 659.947876 L 551.997009 657.604614 C 551.233154 657.811646 550.666748 658.067383 550.300964 658.368408 C 549.855957 658.727661 549.55011 659.247192 549.381775 659.928467 L 549.342957 659.941406 Z M 559.735901 656.578003 L 559.056213 658.384033 C 558.282654 658.155884 557.654724 658.104004 557.172485 658.228638 C 556.411865 658.427734 555.845398 658.822632 555.469971 659.413208 C 555.094543 660.005615 555.000671 660.662598 555.19165 661.387573 C 555.368042 662.060913 555.775818 662.581909 556.4151 662.947754 C 557.02356 663.289185 557.609436 663.38623 558.175842 663.239014 C 558.852295 663.062622 559.452698 662.682251 559.975403 662.099731 L 561.477234 663.264893 C 560.967407 664.132324 560.040161 664.744019 558.693665 665.096802 C 557.5625 665.391357 556.463623 665.261963 555.398743 664.708496 C 554.233582 664.112915 553.479431 663.166138 553.133118 661.866699 C 552.819153 660.654541 553.000427 659.515259 553.67688 658.44873 C 554.340393 657.417847 555.278992 656.743042 556.492737 656.422607 C 557.505859 656.155518 558.586853 656.207397 559.735901 656.578003 Z M 562.655334 663.910889 L 564.655579 663.25061 L 561.697266 652 L 559.735901 652.796143 L 562.655334 663.910889 Z M 573.470154 660.056763 L 572.143066 658.535522 C 571.340393 659.438477 570.53772 659.991943 569.735046 660.199097 C 568.932312 660.411133 568.330322 660.280029 567.928955 659.804199 L 572.596252 654.878052 C 572.034668 654.217773 571.346863 653.750122 570.53125 653.473389 C 569.715576 653.193359 568.893494 653.162598 568.06488 653.38269 C 566.843079 653.703125 565.893127 654.399048 565.216675 655.473633 C 564.540161 656.544922 564.360535 657.684204 564.679382 658.891479 C 564.994934 660.100464 565.710266 661.006714 566.828491 661.610352 C 567.945129 662.215576 569.115234 662.358032 570.337036 662.037598 C 571.575073 661.710693 572.618896 661.050415 573.470154 660.056763 Z M 575.606689 657.467285 C 575.873718 657.392822 576.239441 657.310303 576.404541 657.336182 C 576.771851 657.36377 577.110107 657.554688 577.325317 657.855713 C 577.432129 657.981934 577.550293 658.338013 577.624756 658.60498 C 577.699158 658.871948 577.783325 659.237793 577.755798 659.401245 C 577.728271 659.770142 577.53894 660.106812 577.237976 660.322021 C 577.110107 660.43042 576.754089 660.548584 576.487061 660.623047 C 576.221619 660.69751 575.855896 660.781616 575.690857 660.75415 C 575.321838 660.726563 574.985229 660.535645 574.77002 660.236206 C 574.66156 660.108398 574.543457 659.752319 574.468994 659.485352 C 574.394531 659.219971 574.312012 658.852539 574.337891 658.689087 C 574.367004 658.32019 574.556396 657.983521 574.857361 657.768311 C 574.983643 657.659912 575.339661 657.541748 575.606689 657.467285 Z M 577.360474 651.217773 L 579.529053 659.477661 L 581.535767 658.817383 L 580.22168 653.813599 C 579.936829 652.726074 580.22168 652.070557 581.076172 651.845703 C 581.869141 651.63855 582.370789 651.932983 582.577942 652.726074 L 584.040955 658.293091 L 586.041199 657.632813 L 584.727112 652.628906 C 584.442261 651.541382 584.723877 650.885986 585.575073 650.661011 C 586.368103 650.453857 586.869751 650.748413 587.076904 651.541382 L 588.539856 657.108398 L 590.540161 656.454712 L 589.012451 650.648071 C 588.787476 649.785522 588.329468 649.19165 587.640076 648.86792 C 587.057495 648.600952 586.406921 648.562012 585.69165 648.751465 C 584.871155 648.968262 584.197876 649.515259 583.671936 650.39563 C 582.911316 649.851929 582.119995 649.688477 581.296265 649.903687 C 580.838257 650.025024 580.474121 650.225708 580.202271 650.505737 C 579.985392 650.71285 579.75234 651.062378 579.503113 651.554321 L 579.231262 650.518677 L 577.360474 651.217773 Z M 545.435181 657.264038 L 543.700317 656.26709 L 542.684021 657.989014 L 544.412415 658.992432 L 545.435181 657.264038 Z M 569.961609 655.25354 L 566.750854 658.567871 C 566.694153 658.44812 566.635925 658.27002 566.57605 658.036987 C 566.462769 657.389648 566.579285 656.78125 566.925598 656.211548 C 567.275146 655.641968 567.763916 655.272949 568.39502 655.104614 C 568.990601 654.949219 569.511719 654.99939 569.961609 655.25354 Z M 592.212341 653.541504 L 591.273743 655.133911 C 592.252808 655.812012 593.387268 655.980347 594.678711 655.638916 C 595.584961 655.402588 596.292175 654.981812 596.801941 654.376587 C 597.371582 653.716309 597.539917 652.949219 597.306824 652.072021 C 597.081909 651.209473 596.565674 650.659302 595.759705 650.421387 C 595.461975 650.340454 594.757996 650.283813 593.649414 650.253052 C 592.901733 650.236816 592.484253 650.057251 592.393616 649.71582 C 592.241455 649.146118 592.49231 648.7771 593.144531 648.608887 C 593.665609 648.471273 594.24821 648.607178 594.892334 649.016602 L 595.9151 647.482422 C 594.887451 646.809204 593.767578 646.631226 592.55542 646.94519 C 591.739807 647.162109 591.108643 647.550415 590.658752 648.110352 C 590.158691 648.731812 590.014648 649.440674 590.225037 650.233643 C 590.458069 651.131836 590.98407 651.706299 591.798096 651.955566 C 592.065063 652.033203 592.775513 652.10437 593.927795 652.169189 C 594.678711 652.212891 595.102661 652.420044 595.203003 652.790649 C 595.258057 653.007446 595.199768 653.230835 595.028259 653.463867 C 594.855103 653.693604 594.607483 653.850586 594.283813 653.936401 C 593.597656 654.11438 592.906616 653.981689 592.212341 653.541504 Z"/>
        </g>
    </g>
</svg>
