<?xml version="1.0" encoding="UTF-8"?>
<!--Generator: Apple Native CoreSVG 341-->
<!DOCTYPE svg
PUBLIC "-//W3C//DTD SVG 1.1//EN"
       "http://www.w3.org/Graphics/SVG/1.1/DTD/svg11.dtd">
<svg version="1.1" xmlns="http://www.w3.org/2000/svg" xmlns:xlink="http://www.w3.org/1999/xlink" viewBox="0 0 3300 2200">
 <!--glyph: "", point size: 100.0, font version: "21.0d6e2", template writer version: "138.0.0"-->
 <style>.defaults {-sfsymbols-variable-value-mode:color;-sfsymbols-draw-reverses-motion-groups:true}

.monochrome-0 {-sfsymbols-motion-group:1;-sfsymbols-layer-tags:18.circle 37095e6dce5b6689 6a5e8a00b966e53b _enclosure.stroke circle}
.monochrome-1 {-sfsymbols-motion-group:1;-sfsymbols-layer-tags:18.circle 37095e6dce5b6689 6a5e8a00b966e53b}
.monochrome-2 {opacity:0.0;-sfsymbols-clear-behind:true;-sfsymbols-motion-group:0;-sfsymbols-layer-tags:37095e6dce5b6689 _slash}
.monochrome-3 {-sfsymbols-motion-group:0;-sfsymbols-layer-tags:37095e6dce5b6689 _slash}

.multicolor-0:tintColor {-sfsymbols-motion-group:1;-sfsymbols-layer-tags:18.circle 37095e6dce5b6689 6a5e8a00b966e53b _enclosure.stroke circle}
.multicolor-1:tintColor {-sfsymbols-motion-group:1;-sfsymbols-layer-tags:18.circle 37095e6dce5b6689 6a5e8a00b966e53b}
.multicolor-2:tintColor {opacity:0.0;-sfsymbols-clear-behind:true;-sfsymbols-motion-group:0;-sfsymbols-layer-tags:37095e6dce5b6689 _slash}
.multicolor-3:tintColor {-sfsymbols-motion-group:0;-sfsymbols-layer-tags:37095e6dce5b6689 _slash}

.hierarchical-0:secondary {-sfsymbols-motion-group:1;-sfsymbols-layer-tags:18.circle 37095e6dce5b6689 6a5e8a00b966e53b _enclosure.stroke circle}
.hierarchical-1:secondary {-sfsymbols-motion-group:1;-sfsymbols-layer-tags:18.circle 37095e6dce5b6689 6a5e8a00b966e53b}
.hierarchical-2:primary {opacity:0.0;-sfsymbols-clear-behind:true;-sfsymbols-motion-group:0;-sfsymbols-layer-tags:37095e6dce5b6689 _slash}
.hierarchical-3:primary {-sfsymbols-motion-group:0;-sfsymbols-layer-tags:37095e6dce5b6689 _slash}

.SFSymbolsPreviewWireframe {fill:none;opacity:1.0;stroke:black;stroke-width:0.5}
</style>
 <g id="Notes">
  <rect height="2200" id="artboard" style="fill:white;opacity:1" width="3300" x="0" y="0"/>
  <line style="fill:none;stroke:black;opacity:1;stroke-width:0.5;" x1="263" x2="3036" y1="292" y2="292"/>
  <text style="stroke:none;fill:black;font-family:sans-serif;font-size:13;font-weight:bold;" transform="matrix(1 0 0 1 263 322)">Weight/Scale Variations</text>
  <text style="stroke:none;fill:black;font-family:sans-serif;font-size:13;text-anchor:middle;" transform="matrix(1 0 0 1 559.711 322)">Ultralight</text>
  <text style="stroke:none;fill:black;font-family:sans-serif;font-size:13;text-anchor:middle;" transform="matrix(1 0 0 1 856.422 322)">Thin</text>
  <text style="stroke:none;fill:black;font-family:sans-serif;font-size:13;text-anchor:middle;" transform="matrix(1 0 0 1 1153.13 322)">Light</text>
  <text style="stroke:none;fill:black;font-family:sans-serif;font-size:13;text-anchor:middle;" transform="matrix(1 0 0 1 1449.84 322)">Regular</text>
  <text style="stroke:none;fill:black;font-family:sans-serif;font-size:13;text-anchor:middle;" transform="matrix(1 0 0 1 1746.56 322)">Medium</text>
  <text style="stroke:none;fill:black;font-family:sans-serif;font-size:13;text-anchor:middle;" transform="matrix(1 0 0 1 2043.27 322)">Semibold</text>
  <text style="stroke:none;fill:black;font-family:sans-serif;font-size:13;text-anchor:middle;" transform="matrix(1 0 0 1 2339.98 322)">Bold</text>
  <text style="stroke:none;fill:black;font-family:sans-serif;font-size:13;text-anchor:middle;" transform="matrix(1 0 0 1 2636.69 322)">Heavy</text>
  <text style="stroke:none;fill:black;font-family:sans-serif;font-size:13;text-anchor:middle;" transform="matrix(1 0 0 1 2933.4 322)">Black</text>
  <line style="fill:none;stroke:black;opacity:1;stroke-width:0.5;" x1="263" x2="3036" y1="1903" y2="1903"/>
  <g transform="matrix(0.2 0 0 0.2 263 1933)">
   <path d="m46.2402 4.15039c21.7773 0 39.4531-17.627 39.4531-39.4043s-17.6758-39.4043-39.4531-39.4043c-21.7285 0-39.4043 17.627-39.4043 39.4043s17.6758 39.4043 39.4043 39.4043Zm0-7.42188c-17.6758 0-31.9336-14.3066-31.9336-31.9824s14.2578-31.9824 31.9336-31.9824 31.9824 14.3066 31.9824 31.9824-14.3066 31.9824-31.9824 31.9824Zm3.61328-17.7734v-28.4668c0-2.24609-1.46484-3.75977-3.71094-3.75977-2.14844 0-3.61328 1.51367-3.61328 3.75977v28.4668c0 2.19727 1.46484 3.71094 3.61328 3.71094 2.24609 0 3.71094-1.51367 3.71094-3.71094Zm-17.8223-10.5957h28.418c2.19727 0 3.71094-1.46484 3.71094-3.61328 0-2.19727-1.51367-3.71094-3.71094-3.71094h-28.418c-2.24609 0-3.75977 1.51367-3.75977 3.71094 0 2.14844 1.51367 3.61328 3.75977 3.61328Z"/>
  </g>
  <g transform="matrix(0.2 0 0 0.2 281.506 1933)">
   <path d="m58.5449 14.5508c27.4902 0 49.8047-22.3145 49.8047-49.8047s-22.3145-49.8047-49.8047-49.8047-49.8047 22.3145-49.8047 49.8047 22.3145 49.8047 49.8047 49.8047Zm0-8.30078c-22.9492 0-41.5039-18.5547-41.5039-41.5039s18.5547-41.5039 41.5039-41.5039 41.5039 18.5547 41.5039 41.5039-18.5547 41.5039-41.5039 41.5039Zm4.05273-23.0957v-36.9141c0-2.49023-1.70898-4.19922-4.15039-4.19922-2.39258 0-4.05273 1.70898-4.05273 4.19922v36.9141c0 2.44141 1.66016 4.15039 4.05273 4.15039 2.44141 0 4.15039-1.66016 4.15039-4.15039Zm-22.5586-14.4043h36.9629c2.44141 0 4.15039-1.61133 4.15039-4.00391 0-2.44141-1.70898-4.15039-4.15039-4.15039h-36.9629c-2.49023 0-4.15039 1.70898-4.15039 4.15039 0 2.39258 1.66016 4.00391 4.15039 4.00391Z"/>
  </g>
  <g transform="matrix(0.2 0 0 0.2 304.924 1933)">
   <path d="m74.8535 28.3203c35.1074 0 63.623-28.4668 63.623-63.5742s-28.5156-63.623-63.623-63.623-63.5742 28.5156-63.5742 63.623 28.4668 63.5742 63.5742 63.5742Zm0-9.08203c-30.127 0-54.4922-24.3652-54.4922-54.4922s24.3652-54.4922 54.4922-54.4922 54.4922 24.3652 54.4922 54.4922-24.3652 54.4922-54.4922 54.4922Zm4.44336-30.3223v-48.4863c0-2.73438-1.85547-4.63867-4.54102-4.63867-2.58789 0-4.44336 1.9043-4.44336 4.63867v48.4863c0 2.68555 1.85547 4.58984 4.44336 4.58984 2.68555 0 4.54102-1.85547 4.54102-4.58984Zm-28.7109-19.7754h48.4863c2.68555 0 4.58984-1.80664 4.58984-4.39453 0-2.73438-1.85547-4.58984-4.58984-4.58984h-48.4863c-2.73438 0-4.58984 1.85547-4.58984 4.58984 0 2.58789 1.85547 4.39453 4.58984 4.39453Z"/>
  </g>
  <text style="stroke:none;fill:black;font-family:sans-serif;font-size:13;font-weight:bold;" transform="matrix(1 0 0 1 263 1953)">Design Variations</text>
  <text style="stroke:none;fill:black;font-family:sans-serif;font-size:13;" transform="matrix(1 0 0 1 263 1971)">Symbols are supported in up to nine weights and three scales.</text>
  <text style="stroke:none;fill:black;font-family:sans-serif;font-size:13;" transform="matrix(1 0 0 1 263 1989)">For optimal layout with text and other symbols, vertically align</text>
  <text style="stroke:none;fill:black;font-family:sans-serif;font-size:13;" transform="matrix(1 0 0 1 263 2007)">symbols with the adjacent text.</text>
  <line style="fill:none;stroke:#00AEEF;stroke-width:0.5;opacity:1.0;" x1="776" x2="776" y1="1919" y2="1933"/>
  <g transform="matrix(0.2 0 0 0.2 776 1933)">
   <path d="m16.5527 0.78125c2.58789 0 3.85742-0.976562 4.78516-3.71094l20.5566-57.5195h0.244141l20.6055 57.5195c0.927734 2.73438 2.19727 3.71094 4.73633 3.71094 2.58789 0 4.24805-1.5625 4.24805-4.00391 0-0.830078-0.146484-1.61133-0.537109-2.63672l-22.9004-60.9863c-1.12305-2.97852-3.125-4.49219-6.25-4.49219-3.02734 0-5.07812 1.46484-6.15234 4.44336l-22.9004 61.084c-0.390625 1.02539-0.537109 1.80664-0.537109 2.63672 0 2.44141 1.5625 3.95508 4.10156 3.95508Zm10.2051-20.9473h30.6641c2.00195 0 3.66211-1.66016 3.66211-3.66211 0-2.05078-1.66016-3.66211-3.66211-3.66211h-30.6641c-2.00195 0-3.66211 1.61133-3.66211 3.66211 0 2.00195 1.66016 3.66211 3.66211 3.66211Z"/>
  </g>
  <line style="fill:none;stroke:#00AEEF;stroke-width:0.5;opacity:1.0;" x1="792.836" x2="792.836" y1="1919" y2="1933"/>
  <text style="stroke:none;fill:black;font-family:sans-serif;font-size:13;font-weight:bold;" transform="matrix(1 0 0 1 776 1953)">Margins</text>
  <text style="stroke:none;fill:black;font-family:sans-serif;font-size:13;" transform="matrix(1 0 0 1 776 1971)">Leading and trailing margins on the left and right side of each symbol</text>
  <text style="stroke:none;fill:black;font-family:sans-serif;font-size:13;" transform="matrix(1 0 0 1 776 1989)">can be adjusted by modifying the x-location of the margin guidelines.</text>
  <text style="stroke:none;fill:black;font-family:sans-serif;font-size:13;" transform="matrix(1 0 0 1 776 2007)">Modifications are automatically applied proportionally to all</text>
  <text style="stroke:none;fill:black;font-family:sans-serif;font-size:13;" transform="matrix(1 0 0 1 776 2025)">scales and weights.</text>
  <g transform="matrix(0.2 0 0 0.2 1289 1933)">
   <path d="m14.209 13.1348 7.86133 7.86133c4.29688 4.39453 9.32617 4.10156 13.8672-1.02539l60.6934-68.2129-4.88281-4.88281-60.2539 67.6758c-1.80664 1.95312-3.4668 2.44141-5.81055 0.0976562l-5.17578-5.12695c-2.29492-2.29492-1.80664-3.95508 0.195312-5.81055l67.4805-62.1582-4.88281-4.83398-68.0664 62.5977c-4.98047 4.58984-5.32227 9.47266-1.02539 13.8184Zm44.873-97.4609c-2.05078 2.00195-2.24609 4.88281-1.07422 6.78711 1.12305 1.80664 3.4668 3.02734 6.5918 2.24609 5.85938-1.66016 12.5977-2.39258 18.8965 0.927734l-2.68555 7.12891c-1.61133 4.00391-0.732422 6.88477 1.70898 9.42383l10.2539 10.3027c2.34375 2.39258 4.54102 2.44141 7.08008 1.95312l4.44336-0.732422 2.58789 2.53906-0.195312 2.24609c-0.0976562 2.29492 0.537109 4.29688 2.7832 6.49414l3.36914 3.32031c2.29492 2.29492 5.51758 2.49023 7.8125 0.195312l12.9883-13.0371c2.29492-2.34375 2.14844-5.37109-0.195312-7.66602l-3.41797-3.41797c-2.19727-2.19727-4.05273-3.02734-6.34766-2.88086l-2.34375 0.244141-2.44141-2.44141 1.02539-4.6875c0.634766-2.73438-0.244141-4.98047-2.88086-7.61719l-11.2793-11.1816c-12.9395-12.8418-35.5957-11.0352-46.6797-0.146484Zm7.08008 2.05078c8.78906-6.39648 25.9766-5.66406 33.6914 1.95312l12.3047 12.207c1.02539 1.02539 1.2207 1.80664 0.927734 3.32031l-1.46484 6.64062 6.73828 6.68945 4.39453-0.244141c1.12305-0.0488281 1.51367 0.0488281 2.34375 0.878906l2.53906 2.49023-10.8398 10.8398-2.49023-2.49023c-0.830078-0.878906-0.976562-1.2207-0.927734-2.39258l0.292969-4.3457-6.68945-6.73828-6.83594 1.17188c-1.41602 0.292969-2.05078 0.195312-3.17383-0.878906l-8.93555-8.88672c-1.07422-1.02539-1.17188-1.70898-0.488281-3.36914l4.58984-11.4746c-6.10352-6.34766-17.041-7.51953-25.5859-4.58984-0.683594 0.244141-0.927734-0.390625-0.390625-0.78125Z"/>
  </g>
  <text style="stroke:none;fill:black;font-family:sans-serif;font-size:13;font-weight:bold;" transform="matrix(1 0 0 1 1289 1953)">Exporting</text>
  <text style="stroke:none;fill:black;font-family:sans-serif;font-size:13;" transform="matrix(1 0 0 1 1289 1971)">Symbols should be outlined when exporting to ensure the</text>
  <text style="stroke:none;fill:black;font-family:sans-serif;font-size:13;" transform="matrix(1 0 0 1 1289 1989)">design is preserved when submitting to Xcode.</text>
  <text id="template-version" style="stroke:none;fill:black;font-family:sans-serif;font-size:13;text-anchor:end;" transform="matrix(1 0 0 1 3036 1933)">Template v.7.0</text>
  <text style="stroke:none;fill:black;font-family:sans-serif;font-size:13;text-anchor:end;" transform="matrix(1 0 0 1 3036 1951)">Requires Xcode 17 or greater</text>
  <text id="descriptive-name" style="stroke:none;fill:black;font-family:sans-serif;font-size:13;text-anchor:end;" transform="matrix(1 0 0 1 3036 1969)">Generated from </text>
  <text style="stroke:none;fill:black;font-family:sans-serif;font-size:13;text-anchor:end;" transform="matrix(1 0 0 1 3036 1987)">Typeset at 100.0 points</text>
  <text style="stroke:none;fill:black;font-family:sans-serif;font-size:13;" transform="matrix(1 0 0 1 263 726)">Small</text>
  <text style="stroke:none;fill:black;font-family:sans-serif;font-size:13;" transform="matrix(1 0 0 1 263 1156)">Medium</text>
  <text style="stroke:none;fill:black;font-family:sans-serif;font-size:13;" transform="matrix(1 0 0 1 263 1586)">Large</text>
 </g>
 <g id="Guides">
  <g id="H-reference" style="fill:#27AAE1;stroke:none;" transform="matrix(1 0 0 1 339 696)">
   <path d="M0.993654 0L3.63775 0L29.3281-67.1323L30.0303-67.1323L30.0303-70.459L28.1226-70.459ZM11.6885-24.4799L46.9815-24.4799L46.2315-26.7285L12.4385-26.7285ZM55.1196 0L57.7637 0L30.6382-70.459L29.4326-70.459L29.4326-67.1323Z"/>
  </g>
  <line id="Baseline-S" style="fill:none;stroke:#27AAE1;opacity:1;stroke-width:0.5;" x1="263" x2="3036" y1="696" y2="696"/>
  <line id="Capline-S" style="fill:none;stroke:#27AAE1;opacity:1;stroke-width:0.5;" x1="263" x2="3036" y1="625.541" y2="625.541"/>
  <g id="H-reference" style="fill:#27AAE1;stroke:none;" transform="matrix(1 0 0 1 339 1126)">
   <path d="M0.993654 0L3.63775 0L29.3281-67.1323L30.0303-67.1323L30.0303-70.459L28.1226-70.459ZM11.6885-24.4799L46.9815-24.4799L46.2315-26.7285L12.4385-26.7285ZM55.1196 0L57.7637 0L30.6382-70.459L29.4326-70.459L29.4326-67.1323Z"/>
  </g>
  <line id="Baseline-M" style="fill:none;stroke:#27AAE1;opacity:1;stroke-width:0.5;" x1="263" x2="3036" y1="1126" y2="1126"/>
  <line id="Capline-M" style="fill:none;stroke:#27AAE1;opacity:1;stroke-width:0.5;" x1="263" x2="3036" y1="1055.54" y2="1055.54"/>
  <g id="H-reference" style="fill:#27AAE1;stroke:none;" transform="matrix(1 0 0 1 339 1556)">
   <path d="M0.993654 0L3.63775 0L29.3281-67.1323L30.0303-67.1323L30.0303-70.459L28.1226-70.459ZM11.6885-24.4799L46.9815-24.4799L46.2315-26.7285L12.4385-26.7285ZM55.1196 0L57.7637 0L30.6382-70.459L29.4326-70.459L29.4326-67.1323Z"/>
  </g>
  <line id="Baseline-L" style="fill:none;stroke:#27AAE1;opacity:1;stroke-width:0.5;" x1="263" x2="3036" y1="1556" y2="1556"/>
  <line id="Capline-L" style="fill:none;stroke:#27AAE1;opacity:1;stroke-width:0.5;" x1="263" x2="3036" y1="1485.54" y2="1485.54"/>
  <line id="right-margin-Black-S" style="fill:none;stroke:#00AEEF;stroke-width:0.5;opacity:1.0;" x1="2982.23" x2="2982.23" y1="600.785" y2="720.121"/>
  <line id="left-margin-Black-S" style="fill:none;stroke:#00AEEF;stroke-width:0.5;opacity:1.0;" x1="2884.57" x2="2884.57" y1="600.785" y2="720.121"/>
  <line id="right-margin-Regular-S" style="fill:none;stroke:#00AEEF;stroke-width:0.5;opacity:1.0;" x1="1496.11" x2="1496.11" y1="600.785" y2="720.121"/>
  <line id="left-margin-Regular-S" style="fill:none;stroke:#00AEEF;stroke-width:0.5;opacity:1.0;" x1="1403.58" x2="1403.58" y1="600.785" y2="720.121"/>
  <line id="right-margin-Ultralight-S" style="fill:none;stroke:#00AEEF;stroke-width:0.5;opacity:1.0;" x1="603.773" x2="603.773" y1="600.785" y2="720.121"/>
  <line id="left-margin-Ultralight-S" style="fill:none;stroke:#00AEEF;stroke-width:0.5;opacity:1.0;" x1="515.649" x2="515.649" y1="600.785" y2="720.121"/>
 </g>
 <g id="Symbols">
  <g id="Black-S" transform="matrix(1 0 0 1 2884.57 696)">
   <path class="monochrome-0 multicolor-0:tintColor hierarchical-0:secondary SFSymbolsPreviewWireframe" d="M48.8281 6.73828C72.0215 6.73828 90.8203-12.0605 90.8203-35.2539C90.8203-58.4473 72.0215-77.2461 48.8281-77.2461C25.6348-77.2461 6.83594-58.4473 6.83594-35.2539C6.83594-12.0605 25.6348 6.73828 48.8281 6.73828ZM48.8281-7.42188C33.4473-7.42188 20.9961-19.873 20.9961-35.2539C20.9961-50.6348 33.4473-63.0859 48.8281-63.0859C64.209-63.0859 76.6602-50.6348 76.6602-35.2539C76.6602-19.873 64.209-7.42188 48.8281-7.42188Z" data-clipstroke-keyframes="0 4 0 0.49909952 1.5010293 0 0.24858466 0.25051486 1.7494847 0 0.49588814 0.0032113728 1.9966589 0 0.75064266 0.74845684 1.2515438 0 1 0.49909952 1.5010293"/>
   <path class="monochrome-1 multicolor-1:tintColor hierarchical-1:secondary SFSymbolsPreviewWireframe" d="M39.4043-20.6543C41.5039-20.6543 43.1641-22.3145 43.1641-24.4141L43.1641-45.6055C43.1641-48.3398 41.5039-49.8047 38.7695-49.8047C36.7676-49.8047 35.4492-49.0723 34.0332-47.998L31.25-45.8496C30.127-45.0195 29.6387-44.1406 29.6387-42.9688C29.6387-41.0645 30.957-40.332 32.0801-40.332C32.7637-40.332 33.252-40.5273 33.8867-41.0156L35.6445-42.3828L35.6445-24.4141C35.6445-22.3145 37.3047-20.6543 39.4043-20.6543ZM57.2266-20.3613C62.4023-20.3613 66.7969-23.1445 66.7969-28.7109C66.7969-32.1777 64.8926-35.2051 61.5723-35.8887L61.5723-36.0352C64.3555-36.9141 66.1133-39.4043 66.1133-42.334C66.1133-47.0703 62.3535-50.0488 57.2266-50.0488C52.4902-50.0488 48.3887-47.4609 48.3887-42.334C48.3887-38.9648 50.5371-36.7676 52.9297-36.0352L52.9297-35.8887C49.9023-35.3027 47.6562-32.2754 47.6562-28.7598C47.6562-23.584 51.6602-20.3613 57.2266-20.3613ZM57.2266-38.1348C56.25-38.1348 55.6152-39.4531 55.6152-41.5527C55.6152-43.6523 56.25-44.9707 57.2266-44.9707C58.3008-44.9707 58.9355-43.6523 58.9355-41.5527C58.9355-39.4531 58.3008-38.1348 57.2266-38.1348ZM57.2266-25.4883C56.1035-25.4883 55.4199-26.9531 55.4199-29.2969C55.4199-31.5918 56.1035-33.0566 57.2266-33.0566C58.3496-33.0566 59.082-31.5918 59.082-29.2969C59.082-26.9531 58.3496-25.4883 57.2266-25.4883Z"/>
   <path class="monochrome-2 multicolor-2:tintColor hierarchical-2:primary SFSymbolsPreviewWireframe" d="M92.8018-4.48836C96.4529-0.837264 96.4529 5.09118 92.8018 8.74227C89.1507 12.3934 83.2222 12.3934 79.5711 8.74227L4.85823-65.9706C1.20714-69.6217 1.20714-75.5502 4.85823-79.2013C8.50933-82.8524 14.4378-82.8524 18.0889-79.2013Z" data-clipstroke-keyframes="0 0 0 0.49990463 0.6089134 0 1 0 0.10891342"/>
   <path class="monochrome-3 multicolor-3:tintColor hierarchical-3:primary SFSymbolsPreviewWireframe" d="M88.6517-0.338247C90.0122 1.02234 90.0122 3.23158 88.6517 4.59217C87.2911 5.95275 85.0818 5.95275 83.7212 4.59217L9.00834-70.1207C7.64776-71.4813 7.64776-73.6906 9.00834-75.0511C10.3689-76.4117 12.5782-76.4117 13.9388-75.0511Z" data-clipstroke-keyframes="0 0 0 0.49988937 0.54707384 0 1 0 0.04707384"/>
  </g>
  <g id="Regular-S" transform="matrix(1 0 0 1 1403.58 696)">
   <path class="monochrome-0 multicolor-0:tintColor hierarchical-0:secondary SFSymbolsPreviewWireframe" d="M46.2402 4.15039C68.0176 4.15039 85.6934-13.4766 85.6934-35.2539C85.6934-57.0312 68.0176-74.6582 46.2402-74.6582C24.5117-74.6582 6.83594-57.0312 6.83594-35.2539C6.83594-13.4766 24.5117 4.15039 46.2402 4.15039ZM46.2402-3.27148C28.5645-3.27148 14.3066-17.5781 14.3066-35.2539C14.3066-52.9297 28.5645-67.2363 46.2402-67.2363C63.916-67.2363 78.2227-52.9297 78.2227-35.2539C78.2227-17.5781 63.916-3.27148 46.2402-3.27148Z" data-clipstroke-keyframes="0 4 0 0.49914482 1.5008681 0 0.24828531 0.2508595 1.7491462 0 0.4958041 0.0033407207 1.9966576 0 0.7506014 0.74854344 1.2514637 0 1 0.49914482 1.5008681"/>
   <path class="monochrome-1 multicolor-1:tintColor hierarchical-1:secondary SFSymbolsPreviewWireframe" d="M35.6445-19.3359C37.3535-19.3359 38.7695-20.752 38.7695-22.5098L38.7695-47.7051C38.7695-50 37.3535-51.2695 35.1074-51.2695C33.3496-51.2695 31.8848-50.2441 30.8594-49.5117L26.9043-46.4844C26.1719-45.9473 25.5859-45.0684 25.5859-43.9453C25.5859-42.627 26.4648-41.6992 27.7344-41.6992C28.418-41.6992 28.8086-41.8945 29.248-42.2363L32.4707-44.8242L32.4707-22.5098C32.4707-20.752 33.8867-19.3359 35.6445-19.3359ZM54.9316-19.043C61.1816-19.043 65.1855-22.8516 65.1855-28.125C65.1855-32.373 62.4023-35.3027 59.375-35.9863L59.375-36.1328C61.8652-36.8652 64.3066-39.3066 64.3066-43.0176C64.3066-48.0469 60.4492-51.416 54.9316-51.416C50.1465-51.416 45.6055-48.6328 45.6055-43.0664C45.6055-39.0137 48.1934-36.8164 50.5371-36.1328L50.5371-35.9863C47.2656-35.2539 44.7266-32.373 44.7266-28.125C44.7266-22.3145 49.2188-19.043 54.9316-19.043ZM54.9316-38.0859C52.5391-38.0859 51.5625-40.4785 51.5625-42.4316C51.5625-44.6289 52.7344-46.875 54.9316-46.875C57.1777-46.875 58.252-44.7266 58.252-42.4316C58.252-40.0879 57.2266-38.0859 54.9316-38.0859ZM54.9316-23.6328C52.3438-23.6328 51.1719-25.9766 51.1719-28.6133C51.1719-31.1523 52.3438-33.4961 54.9316-33.4961C57.5195-33.4961 58.6914-31.2012 58.6914-28.6133C58.6914-25.9766 57.5195-23.6328 54.9316-23.6328Z"/>
   <path class="monochrome-2 multicolor-2:tintColor hierarchical-2:primary SFSymbolsPreviewWireframe" d="M87.3183-6.06714C90.5998-2.78573 90.5998 2.54245 87.3183 5.82386C84.0369 9.10527 78.7088 9.10527 75.4274 5.82386L5.21165-64.3918C1.93024-67.6733 1.93024-73.0014 5.21165-76.2828C8.49306-79.5643 13.8212-79.5643 17.1026-76.2828Z" data-clipstroke-keyframes="0 0 0 0.50010824 0.6049547 0 1 0 0.10495472"/>
   <path class="monochrome-3 multicolor-3:tintColor hierarchical-3:primary SFSymbolsPreviewWireframe" d="M83.8519-2.60066C85.2201-1.23245 85.2201 0.98917 83.8519 2.35738C82.4837 3.72558 80.262 3.72558 78.8938 2.35738L8.67813-67.8583C7.30992-69.2265 7.30992-71.4482 8.67813-72.8164C10.0463-74.1846 12.268-74.1846 13.6362-72.8164Z" data-clipstroke-keyframes="0 0 0 0.50020504 0.5497174 0 1 0 0.049717426"/>
  </g>
  <g id="Ultralight-S" transform="matrix(1 0 0 1 515.649 696)">
   <path class="monochrome-0 multicolor-0:tintColor hierarchical-0:secondary SFSymbolsPreviewWireframe" d="M44.0606 1.97072C64.6118 1.97072 81.2886-14.7026 81.2886-35.2539C81.2886-55.8052 64.6118-72.4785 44.0606-72.4785C23.5127-72.4785 6.83594-55.8052 6.83594-35.2539C6.83594-14.7026 23.5127 1.97072 44.0606 1.97072ZM44.0606-0.274438C24.7046-0.274438 9.0391-15.898 9.0391-35.2539C9.0391-54.6099 24.7046-70.2334 44.0606-70.2334C63.4165-70.2334 79.04-54.6099 79.04-35.2539C79.04-15.898 63.4165-0.274438 44.0606-0.274438Z" data-clipstroke-keyframes="0 4 0 0.49911225 1.5011581 0 0.24859133 0.2505209 1.7495484 0 0.49577397 0.0033382904 1.9966562 0 0.7506487 0.7484636 1.251609 0 1 0.49911225 1.5011581"/>
   <path class="monochrome-1 multicolor-1:tintColor hierarchical-1:secondary SFSymbolsPreviewWireframe" d="M34.6455-19.4268C35.2647-19.4268 35.8633-20.0254 35.8633-20.6934L35.8633-49.7031C35.8633-50.4541 35.2647-51.0425 34.5171-51.0425C33.7583-51.0425 33.2016-50.6528 32.7212-50.2383L27.313-45.8032C26.9893-45.5386 26.8574-45.25 26.8574-44.8081C26.8574-44.2617 27.1914-43.7881 27.8252-43.7881C28.1455-43.7881 28.3091-43.8926 28.5215-44.0527L33.3335-48.0029L33.3335-20.6934C33.3335-20.0254 33.9321-19.4268 34.6455-19.4268ZM50.4361-19.27C55.5508-19.27 58.9644-23.0786 58.9644-28.1704C58.9644-31.9189 56.7261-35.3936 53.5625-36.1226L53.5625-36.1782C56.4161-37.1831 58.1309-39.9878 58.1309-43.1084C58.1309-47.5474 55.2725-51.189 50.4361-51.189C45.878-51.189 42.8355-47.7246 42.8355-43.1118C42.8355-39.8765 44.3789-37.1797 47.3584-36.1782L47.3584-36.1226C44.1778-35.3901 41.9566-31.9644 41.9566-28.1704C41.9566-23.2226 45.1773-19.27 50.4361-19.27ZM50.4815-37.1323C47.7256-37.1323 45.2051-39.2525 45.2051-42.9311C45.2051-46.4453 47.3306-49.0547 50.4815-49.0547C53.9082-49.0547 55.7544-46.0434 55.7544-42.9311C55.7544-39.543 53.4575-37.1323 50.4815-37.1323ZM50.4815-21.4077C46.7129-21.4077 44.4512-24.5234 44.4512-28.2954C44.4512-32.0605 46.7583-34.9492 50.4815-34.9492C53.7959-34.9492 56.4663-32.4726 56.4663-28.2954C56.4663-24.5689 54.2046-21.4077 50.4815-21.4077Z"/>
   <path class="monochrome-2 multicolor-2:tintColor hierarchical-2:primary SFSymbolsPreviewWireframe" d="M81.7482-3.06064C83.2708-1.53808 83.2708 0.934172 81.7482 2.45673C80.2257 3.97929 77.7534 3.97929 76.2309 2.45673L6.37578-67.3983C4.85322-68.9209 4.85322-71.3932 6.37578-72.9157C7.89834-74.4383 10.3706-74.4383 11.8931-72.9157Z" data-clipstroke-keyframes="0 0 0 0.5001135 0.5550747 0 1 0 0.05507469"/>
   <path class="monochrome-3 multicolor-3:tintColor hierarchical-3:primary SFSymbolsPreviewWireframe" d="M79.6973-1.00975C80.088-0.619106 80.088 0.0152006 79.6973 0.405845C79.3067 0.796489 78.6724 0.796489 78.2817 0.405845L8.42666-69.4492C8.03602-69.8399 8.03602-70.4742 8.42666-70.8648C8.81731-71.2555 9.45161-71.2555 9.84226-70.8648Z" data-clipstroke-keyframes="0 0 0 0.50012684 0.51529884 0 1 0 0.015298843"/>
  </g>
 </g>
</svg>
