<?xml version="1.0" encoding="UTF-8"?>
<!-- Generated by Pixelmator Pro 3.7.1 -->
<svg width="3300" height="2200" viewBox="0 0 3300 2200" xmlns="http://www.w3.org/2000/svg">
    <g id="Notes">
        <path id="artboard" fill="#ffffff" stroke="none" d="M 0 0 L 3300 0 L 3300 2200 L 0 2200 Z"/>
        <path id="path1" fill="none" stroke="#000000" stroke-width="0.5" d="M 263 292 L 3036 292"/>
        <text id="WeightScale-Variations" xml:space="preserve" x="264" y="322" font-family="Helvetica" font-size="13" font-weight="700" fill="#000000">Weight/Scale Variations</text>
        <text id="Ultralight" xml:space="preserve" x="534.352295" y="322" font-family="Helvetica" font-size="13" fill="#000000">Ultralight</text>
        <text id="Thin" xml:space="preserve" x="843.355469" y="322" font-family="Helvetica" font-size="13" fill="#000000">Thin</text>
        <text id="Light" xml:space="preserve" x="1139.405029" y="322" font-family="Helvetica" font-size="13" fill="#000000">Light</text>
        <text id="Regular" xml:space="preserve" x="1427.237305" y="322" font-family="Helvetica" font-size="13" fill="#000000">Regular</text>
        <text id="Medium" xml:space="preserve" x="1723.381836" y="322" font-family="Helvetica" font-size="13" fill="#000000">Medium</text>
        <text id="Semibold" xml:space="preserve" x="2016.401855" y="322" font-family="Helvetica" font-size="13" fill="#000000">Semibold</text>
        <text id="Bold" xml:space="preserve" x="2326.490479" y="322" font-family="Helvetica" font-size="13" fill="#000000">Bold</text>
        <text id="Heavy" xml:space="preserve" x="2618.075928" y="322" font-family="Helvetica" font-size="13" fill="#000000">Heavy</text>
        <text id="Black" xml:space="preserve" x="2917.105469" y="322" font-family="Helvetica" font-size="13" fill="#000000">Black</text>
        <path id="path2" fill="none" stroke="#000000" stroke-width="0.5" d="M 263 1903 L 3036 1903"/>
        <g id="g1">
            <path id="path3" fill="#000000" stroke="none" d="M 272.248047 1933.830078 C 276.603516 1933.830078 280.138672 1930.304688 280.138672 1925.949219 C 280.138672 1921.59375 276.603516 1918.068359 272.248047 1918.068359 C 267.902344 1918.068359 264.367188 1921.59375 264.367188 1925.949219 C 264.367188 1930.304688 267.902344 1933.830078 272.248047 1933.830078 Z M 272.248047 1932.345703 C 268.712891 1932.345703 265.861328 1929.484375 265.861328 1925.949219 C 265.861328 1922.414063 268.712891 1919.552734 272.248047 1919.552734 C 275.783203 1919.552734 278.644531 1922.414063 278.644531 1925.949219 C 278.644531 1929.484375 275.783203 1932.345703 272.248047 1932.345703 Z M 272.970703 1928.791016 L 272.970703 1923.097656 C 272.970703 1922.648438 272.677734 1922.345703 272.228516 1922.345703 C 271.798828 1922.345703 271.505859 1922.648438 271.505859 1923.097656 L 271.505859 1928.791016 C 271.505859 1929.230469 271.798828 1929.533203 272.228516 1929.533203 C 272.677734 1929.533203 272.970703 1929.230469 272.970703 1928.791016 Z M 269.40625 1926.671875 L 275.089844 1926.671875 C 275.529297 1926.671875 275.832031 1926.378906 275.832031 1925.949219 C 275.832031 1925.509766 275.529297 1925.207031 275.089844 1925.207031 L 269.40625 1925.207031 C 268.957031 1925.207031 268.654297 1925.509766 268.654297 1925.949219 C 268.654297 1926.378906 268.957031 1926.671875 269.40625 1926.671875 Z"/>
        </g>
        <g id="g2">
            <path id="path4" fill="#000000" stroke="none" d="M 293.214966 1935.910156 C 298.713013 1935.910156 303.175934 1931.447266 303.175934 1925.949219 C 303.175934 1920.451172 298.713013 1915.988281 293.214966 1915.988281 C 287.716949 1915.988281 283.254028 1920.451172 283.254028 1925.949219 C 283.254028 1931.447266 287.716949 1935.910156 293.214966 1935.910156 Z M 293.214966 1934.25 C 288.625153 1934.25 284.914215 1930.539063 284.914215 1925.949219 C 284.914215 1921.359375 288.625153 1917.648438 293.214966 1917.648438 C 297.80481 1917.648438 301.515747 1921.359375 301.515747 1925.949219 C 301.515747 1930.539063 297.80481 1934.25 293.214966 1934.25 Z M 294.025513 1929.630859 L 294.025513 1922.248047 C 294.025513 1921.75 293.683716 1921.408203 293.195435 1921.408203 C 292.716919 1921.408203 292.384888 1921.75 292.384888 1922.248047 L 292.384888 1929.630859 C 292.384888 1930.119141 292.716919 1930.460938 293.195435 1930.460938 C 293.683716 1930.460938 294.025513 1930.128906 294.025513 1929.630859 Z M 289.513794 1926.75 L 296.906372 1926.75 C 297.394653 1926.75 297.73645 1926.427734 297.73645 1925.949219 C 297.73645 1925.460938 297.394653 1925.119141 296.906372 1925.119141 L 289.513794 1925.119141 C 289.015747 1925.119141 288.683716 1925.460938 288.683716 1925.949219 C 288.683716 1926.427734 289.015747 1926.75 289.513794 1926.75 Z"/>
        </g>
        <g id="g3">
            <path id="path5" fill="#000000" stroke="none" d="M 319.894714 1938.664063 C 326.916168 1938.664063 332.619293 1932.970703 332.619293 1925.949219 C 332.619293 1918.927734 326.916168 1913.224609 319.894714 1913.224609 C 312.87323 1913.224609 307.179871 1918.927734 307.179871 1925.949219 C 307.179871 1932.970703 312.87323 1938.664063 319.894714 1938.664063 Z M 319.894714 1936.847656 C 313.869293 1936.847656 308.996246 1931.974609 308.996246 1925.949219 C 308.996246 1919.923828 313.869293 1915.050781 319.894714 1915.050781 C 325.920105 1915.050781 330.793152 1919.923828 330.793152 1925.949219 C 330.793152 1931.974609 325.920105 1936.847656 319.894714 1936.847656 Z M 320.783386 1930.783203 L 320.783386 1921.085938 C 320.783386 1920.539063 320.412292 1920.158203 319.875153 1920.158203 C 319.357605 1920.158203 318.986481 1920.539063 318.986481 1921.085938 L 318.986481 1930.783203 C 318.986481 1931.320313 319.357605 1931.701172 319.875153 1931.701172 C 320.412292 1931.701172 320.783386 1931.330078 320.783386 1930.783203 Z M 315.041199 1926.828125 L 324.738464 1926.828125 C 325.275574 1926.828125 325.656433 1926.466797 325.656433 1925.949219 C 325.656433 1925.402344 325.285339 1925.03125 324.738464 1925.03125 L 315.041199 1925.03125 C 314.494324 1925.03125 314.12323 1925.402344 314.12323 1925.949219 C 314.12323 1926.466797 314.494324 1926.828125 315.041199 1926.828125 Z"/>
        </g>
        <text id="Design-Variations" xml:space="preserve" x="264" y="1953" font-family="Helvetica" font-size="13" font-weight="700" fill="#000000">Design Variations</text>
        <text id="Symbols-are-supported-in" xml:space="preserve" x="264" y="1971" font-family="Helvetica" font-size="13" fill="#000000">Symbols are supported in up to nine weights and three scales.</text>
        <text id="For-optimal-layout-with" xml:space="preserve" x="264" y="1989" font-family="Helvetica" font-size="13" fill="#000000">For optimal layout with text and other symbols, vertically align</text>
        <text id="symbols-with-the-adjacent" xml:space="preserve" x="264" y="2007" font-family="Helvetica" font-size="13" fill="#000000">symbols with the adjacent text.</text>
        <path id="path6" fill="none" stroke="#00aeef" stroke-width="0.5" d="M 776 1919 L 776 1933"/>
        <g id="g4">
            <path id="path7" fill="#000000" stroke="none" d="M 779.310547 1933.15625 C 779.828125 1933.15625 780.082031 1932.960938 780.267578 1932.414063 L 784.378906 1920.910156 L 784.427734 1920.910156 L 788.548828 1932.414063 C 788.734375 1932.960938 788.988281 1933.15625 789.496094 1933.15625 C 790.013672 1933.15625 790.345703 1932.84375 790.345703 1932.355469 C 790.345703 1932.189453 790.316406 1932.033203 790.238281 1931.828125 L 785.658203 1919.630859 C 785.433594 1919.035156 785.033203 1918.732422 784.408203 1918.732422 C 783.802734 1918.732422 783.392578 1919.025391 783.177734 1919.621094 L 778.597656 1931.837891 C 778.519531 1932.042969 778.490234 1932.199219 778.490234 1932.365234 C 778.490234 1932.853516 778.802734 1933.15625 779.310547 1933.15625 Z M 781.351563 1928.966797 L 787.484375 1928.966797 C 787.884766 1928.966797 788.216797 1928.634766 788.216797 1928.234375 C 788.216797 1927.824219 787.884766 1927.501953 787.484375 1927.501953 L 781.351563 1927.501953 C 780.951172 1927.501953 780.619141 1927.824219 780.619141 1928.234375 C 780.619141 1928.634766 780.951172 1928.966797 781.351563 1928.966797 Z"/>
        </g>
        <path id="path8" fill="none" stroke="#00aeef" stroke-width="0.5" d="M 792.835999 1919 L 792.835999 1933"/>
        <text id="Margins" xml:space="preserve" x="777" y="1953" font-family="Helvetica" font-size="13" font-weight="700" fill="#000000">Margins</text>
        <text id="Leading-and-trailing-margins" xml:space="preserve" x="777" y="1971" font-family="Helvetica" font-size="13" fill="#000000">Leading and trailing margins on the left and right side of each symbol</text>
        <text id="can-be-adjusted-by" xml:space="preserve" x="777" y="1989" font-family="Helvetica" font-size="13" fill="#000000">can be adjusted by modifying the x-location of the margin guidelines.</text>
        <text id="Modifications-are-automatically-applied" xml:space="preserve" x="777" y="2007" font-family="Helvetica" font-size="13" fill="#000000">Modifications are automatically applied proportionally to all</text>
        <text id="scales-and-weights" xml:space="preserve" x="777" y="2025" font-family="Helvetica" font-size="13" fill="#000000">scales and weights.</text>
        <g id="g5">
            <path id="path9" fill="#000000" stroke="none" d="M 1291.841797 1935.626953 L 1293.414063 1937.199219 C 1294.273438 1938.078125 1295.279297 1938.019531 1296.1875 1936.994141 L 1308.326172 1923.351563 L 1307.349609 1922.375 L 1295.298828 1935.910156 C 1294.9375 1936.300781 1294.605469 1936.398438 1294.136719 1935.929688 L 1293.101563 1934.904297 C 1292.642578 1934.445313 1292.740234 1934.113281 1293.140625 1933.742188 L 1306.636719 1921.310547 L 1305.660156 1920.34375 L 1292.046875 1932.863281 C 1291.050781 1933.78125 1290.982422 1934.757813 1291.841797 1935.626953 Z M 1300.816406 1916.134766 C 1300.40625 1916.535156 1300.367188 1917.111328 1300.601563 1917.492188 C 1300.826172 1917.853516 1301.294922 1918.097656 1301.919922 1917.941406 C 1303.091797 1917.609375 1304.439453 1917.462891 1305.699219 1918.126953 L 1305.162109 1919.552734 C 1304.839844 1920.353516 1305.015625 1920.929688 1305.503906 1921.4375 L 1307.554688 1923.498047 C 1308.023438 1923.976563 1308.462891 1923.986328 1308.970703 1923.888672 L 1309.859375 1923.742188 L 1310.376953 1924.25 L 1310.337891 1924.699219 C 1310.318359 1925.158203 1310.445313 1925.558594 1310.894531 1925.998047 L 1311.568359 1926.662109 C 1312.027344 1927.121094 1312.671875 1927.160156 1313.130859 1926.701172 L 1315.728516 1924.09375 C 1316.1875 1923.625 1316.158203 1923.019531 1315.689453 1922.560547 L 1315.005859 1921.876953 C 1314.566406 1921.4375 1314.195313 1921.271484 1313.736328 1921.300781 L 1313.267578 1921.349609 L 1312.779297 1920.861328 L 1312.984375 1919.923828 C 1313.111328 1919.376953 1312.935547 1918.927734 1312.408203 1918.400391 L 1310.152344 1916.164063 C 1307.564453 1913.595703 1303.033203 1913.957031 1300.816406 1916.134766 Z M 1302.232422 1916.544922 C 1303.990234 1915.265625 1307.427734 1915.412109 1308.970703 1916.935547 L 1311.431641 1919.376953 C 1311.636719 1919.582031 1311.675781 1919.738281 1311.617188 1920.041016 L 1311.324219 1921.369141 L 1312.671875 1922.707031 L 1313.550781 1922.658203 C 1313.775391 1922.648438 1313.853516 1922.667969 1314.019531 1922.833984 L 1314.527344 1923.332031 L 1312.359375 1925.5 L 1311.861328 1925.001953 C 1311.695313 1924.826172 1311.666016 1924.757813 1311.675781 1924.523438 L 1311.734375 1923.654297 L 1310.396484 1922.306641 L 1309.029297 1922.541016 C 1308.746094 1922.599609 1308.619141 1922.580078 1308.394531 1922.365234 L 1306.607422 1920.587891 C 1306.392578 1920.382813 1306.373047 1920.246094 1306.509766 1919.914063 L 1307.427734 1917.619141 C 1306.207031 1916.349609 1304.019531 1916.115234 1302.310547 1916.701172 C 1302.173828 1916.75 1302.125 1916.623047 1302.232422 1916.544922 Z"/>
        </g>
        <text id="Exporting" xml:space="preserve" x="1290" y="1953" font-family="Helvetica" font-size="13" font-weight="700" fill="#000000">Exporting</text>
        <text id="Symbols-should-be-outlined" xml:space="preserve" x="1290" y="1971" font-family="Helvetica" font-size="13" fill="#000000">Symbols should be outlined when exporting to ensure the</text>
        <text id="design-is-preserved-when" xml:space="preserve" x="1290" y="1989" font-family="Helvetica" font-size="13" fill="#000000">design is preserved when submitting to Xcode.</text>
        <text id="template-version" xml:space="preserve" x="2951.414063" y="1933" font-family="Helvetica" font-size="13" fill="#000000">Template v.7.0</text>
        <text id="Requires-Xcode-17-or" xml:space="preserve" x="2864.45752" y="1951" font-family="Helvetica" font-size="13" fill="#000000">Requires Xcode 17 or greater</text>
        <text id="X-Twitter-SF-Symbol" xml:space="preserve" x="2908.586426" y="1969" font-family="Helvetica" font-size="13" fill="#000000">X (Twitter) SF Symbol</text>
        <text id="Typeset-at-1000-points" xml:space="preserve" x="2900.569336" y="1987" font-family="Helvetica" font-size="13" fill="#000000">Typeset at 100.0 points</text>
        <text id="Small" xml:space="preserve" x="264" y="726" font-family="Helvetica" font-size="13" fill="#000000">Small</text>
        <text id="text1" xml:space="preserve" x="264" y="1156" font-family="Helvetica" font-size="13" fill="#000000">Medium</text>
        <text id="Large" xml:space="preserve" x="264" y="1586" font-family="Helvetica" font-size="13" fill="#000000">Large</text>
    </g>
    <g id="Guides">
        <g id="H-reference">
            <path id="path10" fill="#27aae1" stroke="none" d="M 339.993652 696 L 342.637756 696 L 368.328094 628.867676 L 369.030304 628.867676 L 369.030304 625.541016 L 367.122589 625.541016 Z M 350.688507 671.520142 L 385.981506 671.520142 L 385.231506 669.271484 L 351.438507 669.271484 Z M 394.119598 696 L 396.763702 696 L 369.638214 625.541016 L 368.432587 625.541016 L 368.432587 628.867676 Z"/>
        </g>
        <path id="Baseline-S" fill="none" stroke="#27aae1" stroke-width="0.5" d="M 263 696 L 3036 696"/>
        <path id="Capline-S" fill="none" stroke="#27aae1" stroke-width="0.5" d="M 263 625.541016 L 3036 625.541016"/>
        <g id="g6">
            <path id="path11" fill="#27aae1" stroke="none" d="M 339.993652 1126 L 342.637756 1126 L 368.328094 1058.867676 L 369.030304 1058.867676 L 369.030304 1055.541016 L 367.122589 1055.541016 Z M 350.688507 1101.520142 L 385.981506 1101.520142 L 385.231506 1099.271484 L 351.438507 1099.271484 Z M 394.119598 1126 L 396.763702 1126 L 369.638214 1055.541016 L 368.432587 1055.541016 L 368.432587 1058.867676 Z"/>
        </g>
        <path id="Baseline-M" fill="none" stroke="#27aae1" stroke-width="0.5" d="M 263 1126 L 3036 1126"/>
        <path id="Capline-M" fill="none" stroke="#27aae1" stroke-width="0.5" d="M 263 1055.540039 L 3036 1055.540039"/>
        <g id="g7">
            <path id="path12" fill="#27aae1" stroke="none" d="M 339.993652 1556 L 342.637756 1556 L 368.328094 1488.867676 L 369.030304 1488.867676 L 369.030304 1485.541016 L 367.122589 1485.541016 Z M 350.688507 1531.52002 L 385.981506 1531.52002 L 385.231506 1529.271484 L 351.438507 1529.271484 Z M 394.119598 1556 L 396.763702 1556 L 369.638214 1485.541016 L 368.432587 1485.541016 L 368.432587 1488.867676 Z"/>
        </g>
        <path id="Baseline-L" fill="none" stroke="#27aae1" stroke-width="0.5" d="M 263 1556 L 3036 1556"/>
        <path id="Capline-L" fill="none" stroke="#27aae1" stroke-width="0.5" d="M 263 1485.540039 L 3036 1485.540039"/>
        <path id="right-margin-Black-S" fill="none" stroke="#00aeef" stroke-width="0.5" d="M 2982.22998 600.784912 L 2982.22998 720.120972"/>
        <path id="left-margin-Black-S" fill="none" stroke="#00aeef" stroke-width="0.5" d="M 2884.570068 600.784912 L 2884.570068 720.120972"/>
        <path id="right-margin-Regular-S" fill="none" stroke="#00aeef" stroke-width="0.5" d="M 1496.109985 600.784912 L 1496.109985 720.120972"/>
        <path id="left-margin-Regular-S" fill="none" stroke="#00aeef" stroke-width="0.5" d="M 1403.579956 600.784912 L 1403.579956 720.120972"/>
        <path id="right-margin-Ultralight-S" fill="none" stroke="#00aeef" stroke-width="0.5" d="M 603.77301 600.784912 L 603.77301 720.120972"/>
        <path id="left-margin-Ultralight-S" fill="none" stroke="#00aeef" stroke-width="0.5" d="M 515.648987 600.784912 L 515.648987 720.120972"/>
    </g>
    <g id="Symbols">
        <g id="Black-S">
            <path id="X" fill="none" stroke="#000000" stroke-width="0.5" d="M 2979.973145 702 L 2951.053711 702 L 2928.625244 672.905884 L 2903.275879 702 L 2888.540771 702 L 2921.708008 663.933105 L 2886.273926 618.080322 L 2916.499512 618.080322 L 2936.741699 644.759521 L 2959.94873 618.124146 L 2974.683594 618.124146 L 2943.583496 653.818481 L 2979.973145 702 Z M 2955.780273 693.357788 L 2962.971191 693.357788 L 2912.042236 626.436157 L 2904.40918 626.436157 L 2955.780273 693.357788 Z"/>
        </g>
        <g id="Regular-S">
            <path id="path13" fill="none" stroke="#000000" stroke-width="0.5" d="M 1493.480225 698.884155 L 1466.640503 698.884155 L 1445.825073 671.882446 L 1422.29895 698.884155 L 1408.623657 698.884155 L 1439.405518 663.555054 L 1406.519775 621 L 1434.571533 621 L 1453.35791 645.760376 L 1474.895874 621.040649 L 1488.571167 621.040649 L 1459.707764 654.167847 L 1493.480225 698.884155 Z M 1471.0271 690.863525 L 1477.70105 690.863525 L 1430.434814 628.754883 L 1423.35083 628.754883 L 1471.0271 690.863525 Z"/>
        </g>
        <g id="Ultralight-S">
            <path id="path14" fill="none" stroke="#000000" stroke-width="0.5" d="M 599.247131 695.080322 L 575.096741 695.080322 L 556.367004 670.78418 L 535.198059 695.080322 L 522.893066 695.080322 L 550.590637 663.291138 L 521 625 L 546.241028 625 L 563.14502 647.279419 L 582.524963 625.036499 L 594.829956 625.036499 L 568.858582 654.844482 L 599.247131 695.080322 Z M 579.043823 687.863281 L 585.049011 687.863281 L 542.518738 631.977783 L 536.144592 631.977783 L 579.043823 687.863281 Z"/>
        </g>
    </g>
</svg>
