<?xml version="1.0" encoding="UTF-8"?>
<!-- Generated by Pixelmator Pro 3.7.1 -->
<svg width="3300" height="2200" viewBox="0 0 3300 2200" xmlns="http://www.w3.org/2000/svg">
    <g id="Notes">
        <path id="artboard" fill="#ffffff" stroke="none" visibility="hidden" d="M 0 0 L 3300 0 L 3300 2200 L 0 2200 Z"/>
        <path id="path1" fill="none" stroke="#000000" stroke-width="0.5" d="M 263 292 L 3036 292"/>
        <text id="WeightScale-Variations" xml:space="preserve" x="262" y="324" font-family="Helvetica" font-size="13" font-weight="700" fill="#000000">Weight/Scale Variations</text>
        <text id="Ultralight" xml:space="preserve" x="532.352295" y="324" font-family="Helvetica" font-size="13" fill="#000000">Ultralight</text>
        <text id="Thin" xml:space="preserve" x="841.355469" y="324" font-family="Helvetica" font-size="13" fill="#000000">Thin</text>
        <text id="Light" xml:space="preserve" x="1137.405029" y="324" font-family="Helvetica" font-size="13" fill="#000000">Light</text>
        <text id="Regular" xml:space="preserve" x="1425.237305" y="324" font-family="Helvetica" font-size="13" fill="#000000">Regular</text>
        <text id="Medium" xml:space="preserve" x="1721.381836" y="324" font-family="Helvetica" font-size="13" fill="#000000">Medium</text>
        <text id="Semibold" xml:space="preserve" x="2014.401855" y="324" font-family="Helvetica" font-size="13" fill="#000000">Semibold</text>
        <text id="Bold" xml:space="preserve" x="2324.490479" y="324" font-family="Helvetica" font-size="13" fill="#000000">Bold</text>
        <text id="Heavy" xml:space="preserve" x="2616.075928" y="324" font-family="Helvetica" font-size="13" fill="#000000">Heavy</text>
        <text id="Black" xml:space="preserve" x="2915.105469" y="324" font-family="Helvetica" font-size="13" fill="#000000">Black</text>
        <path id="path2" fill="none" stroke="#000000" stroke-width="0.5" d="M 263 1903 L 3036 1903"/>
        <g id="g1">
            <path id="path3" fill="#000000" stroke="none" d="M 272.248047 1933.830078 C 276.603516 1933.830078 280.138672 1930.304688 280.138672 1925.949219 C 280.138672 1921.59375 276.603516 1918.068359 272.248047 1918.068359 C 267.902344 1918.068359 264.367188 1921.59375 264.367188 1925.949219 C 264.367188 1930.304688 267.902344 1933.830078 272.248047 1933.830078 Z M 272.248047 1932.345703 C 268.712891 1932.345703 265.861328 1929.484375 265.861328 1925.949219 C 265.861328 1922.414063 268.712891 1919.552734 272.248047 1919.552734 C 275.783203 1919.552734 278.644531 1922.414063 278.644531 1925.949219 C 278.644531 1929.484375 275.783203 1932.345703 272.248047 1932.345703 Z M 272.970703 1928.791016 L 272.970703 1923.097656 C 272.970703 1922.648438 272.677734 1922.345703 272.228516 1922.345703 C 271.798828 1922.345703 271.505859 1922.648438 271.505859 1923.097656 L 271.505859 1928.791016 C 271.505859 1929.230469 271.798828 1929.533203 272.228516 1929.533203 C 272.677734 1929.533203 272.970703 1929.230469 272.970703 1928.791016 Z M 269.40625 1926.671875 L 275.089844 1926.671875 C 275.529297 1926.671875 275.832031 1926.378906 275.832031 1925.949219 C 275.832031 1925.509766 275.529297 1925.207031 275.089844 1925.207031 L 269.40625 1925.207031 C 268.957031 1925.207031 268.654297 1925.509766 268.654297 1925.949219 C 268.654297 1926.378906 268.957031 1926.671875 269.40625 1926.671875 Z"/>
        </g>
        <g id="g2">
            <path id="path4" fill="#000000" stroke="none" d="M 293.214966 1935.910156 C 298.713013 1935.910156 303.175934 1931.447266 303.175934 1925.949219 C 303.175934 1920.451172 298.713013 1915.988281 293.214966 1915.988281 C 287.716949 1915.988281 283.254028 1920.451172 283.254028 1925.949219 C 283.254028 1931.447266 287.716949 1935.910156 293.214966 1935.910156 Z M 293.214966 1934.25 C 288.625153 1934.25 284.914215 1930.539063 284.914215 1925.949219 C 284.914215 1921.359375 288.625153 1917.648438 293.214966 1917.648438 C 297.80481 1917.648438 301.515747 1921.359375 301.515747 1925.949219 C 301.515747 1930.539063 297.80481 1934.25 293.214966 1934.25 Z M 294.025513 1929.630859 L 294.025513 1922.248047 C 294.025513 1921.75 293.683716 1921.408203 293.195435 1921.408203 C 292.716919 1921.408203 292.384888 1921.75 292.384888 1922.248047 L 292.384888 1929.630859 C 292.384888 1930.119141 292.716919 1930.460938 293.195435 1930.460938 C 293.683716 1930.460938 294.025513 1930.128906 294.025513 1929.630859 Z M 289.513794 1926.75 L 296.906372 1926.75 C 297.394653 1926.75 297.73645 1926.427734 297.73645 1925.949219 C 297.73645 1925.460938 297.394653 1925.119141 296.906372 1925.119141 L 289.513794 1925.119141 C 289.015747 1925.119141 288.683716 1925.460938 288.683716 1925.949219 C 288.683716 1926.427734 289.015747 1926.75 289.513794 1926.75 Z"/>
        </g>
        <g id="g3">
            <path id="path5" fill="#000000" stroke="none" d="M 319.894714 1938.664063 C 326.916168 1938.664063 332.619293 1932.970703 332.619293 1925.949219 C 332.619293 1918.927734 326.916168 1913.224609 319.894714 1913.224609 C 312.87323 1913.224609 307.179871 1918.927734 307.179871 1925.949219 C 307.179871 1932.970703 312.87323 1938.664063 319.894714 1938.664063 Z M 319.894714 1936.847656 C 313.869293 1936.847656 308.996246 1931.974609 308.996246 1925.949219 C 308.996246 1919.923828 313.869293 1915.050781 319.894714 1915.050781 C 325.920105 1915.050781 330.793152 1919.923828 330.793152 1925.949219 C 330.793152 1931.974609 325.920105 1936.847656 319.894714 1936.847656 Z M 320.783386 1930.783203 L 320.783386 1921.085938 C 320.783386 1920.539063 320.412292 1920.158203 319.875153 1920.158203 C 319.357605 1920.158203 318.986481 1920.539063 318.986481 1921.085938 L 318.986481 1930.783203 C 318.986481 1931.320313 319.357605 1931.701172 319.875153 1931.701172 C 320.412292 1931.701172 320.783386 1931.330078 320.783386 1930.783203 Z M 315.041199 1926.828125 L 324.738464 1926.828125 C 325.275574 1926.828125 325.656433 1926.466797 325.656433 1925.949219 C 325.656433 1925.402344 325.285339 1925.03125 324.738464 1925.03125 L 315.041199 1925.03125 C 314.494324 1925.03125 314.12323 1925.402344 314.12323 1925.949219 C 314.12323 1926.466797 314.494324 1926.828125 315.041199 1926.828125 Z"/>
        </g>
        <text id="Design-Variations" xml:space="preserve" x="262" y="1955" font-family="Helvetica" font-size="13" font-weight="700" fill="#000000">Design Variations</text>
        <text id="Symbols-are-supported-in" xml:space="preserve" x="262" y="1973" font-family="Helvetica" font-size="13" fill="#000000">Symbols are supported in up to nine weights and three scales.</text>
        <text id="For-optimal-layout-with" xml:space="preserve" x="262" y="1991" font-family="Helvetica" font-size="13" fill="#000000">For optimal layout with text and other symbols, vertically align</text>
        <text id="symbols-with-the-adjacent" xml:space="preserve" x="262" y="2009" font-family="Helvetica" font-size="13" fill="#000000">symbols with the adjacent text.</text>
        <path id="path6" fill="none" stroke="#00aeef" stroke-width="0.5" d="M 776 1919 L 776 1933"/>
        <g id="g4">
            <path id="path7" fill="#000000" stroke="none" d="M 779.310547 1933.15625 C 779.828125 1933.15625 780.082031 1932.960938 780.267578 1932.414063 L 784.378906 1920.910156 L 784.427734 1920.910156 L 788.548828 1932.414063 C 788.734375 1932.960938 788.988281 1933.15625 789.496094 1933.15625 C 790.013672 1933.15625 790.345703 1932.84375 790.345703 1932.355469 C 790.345703 1932.189453 790.316406 1932.033203 790.238281 1931.828125 L 785.658203 1919.630859 C 785.433594 1919.035156 785.033203 1918.732422 784.408203 1918.732422 C 783.802734 1918.732422 783.392578 1919.025391 783.177734 1919.621094 L 778.597656 1931.837891 C 778.519531 1932.042969 778.490234 1932.199219 778.490234 1932.365234 C 778.490234 1932.853516 778.802734 1933.15625 779.310547 1933.15625 Z M 781.351563 1928.966797 L 787.484375 1928.966797 C 787.884766 1928.966797 788.216797 1928.634766 788.216797 1928.234375 C 788.216797 1927.824219 787.884766 1927.501953 787.484375 1927.501953 L 781.351563 1927.501953 C 780.951172 1927.501953 780.619141 1927.824219 780.619141 1928.234375 C 780.619141 1928.634766 780.951172 1928.966797 781.351563 1928.966797 Z"/>
        </g>
        <path id="path8" fill="none" stroke="#00aeef" stroke-width="0.5" d="M 792.835999 1919 L 792.835999 1933"/>
        <text id="Margins" xml:space="preserve" x="775" y="1955" font-family="Helvetica" font-size="13" font-weight="700" fill="#000000">Margins</text>
        <text id="Leading-and-trailing-margins" xml:space="preserve" x="775" y="1973" font-family="Helvetica" font-size="13" fill="#000000">Leading and trailing margins on the left and right side of each symbol</text>
        <text id="can-be-adjusted-by" xml:space="preserve" x="775" y="1991" font-family="Helvetica" font-size="13" fill="#000000">can be adjusted by modifying the x-location of the margin guidelines.</text>
        <text id="Modifications-are-automatically-applied" xml:space="preserve" x="775" y="2009" font-family="Helvetica" font-size="13" fill="#000000">Modifications are automatically applied proportionally to all</text>
        <text id="scales-and-weights" xml:space="preserve" x="775" y="2027" font-family="Helvetica" font-size="13" fill="#000000">scales and weights.</text>
        <g id="g5">
            <path id="path9" fill="#000000" stroke="none" d="M 1291.841797 1935.626953 L 1293.414063 1937.199219 C 1294.273438 1938.078125 1295.279297 1938.019531 1296.1875 1936.994141 L 1308.326172 1923.351563 L 1307.349609 1922.375 L 1295.298828 1935.910156 C 1294.9375 1936.300781 1294.605469 1936.398438 1294.136719 1935.929688 L 1293.101563 1934.904297 C 1292.642578 1934.445313 1292.740234 1934.113281 1293.140625 1933.742188 L 1306.636719 1921.310547 L 1305.660156 1920.34375 L 1292.046875 1932.863281 C 1291.050781 1933.78125 1290.982422 1934.757813 1291.841797 1935.626953 Z M 1300.816406 1916.134766 C 1300.40625 1916.535156 1300.367188 1917.111328 1300.601563 1917.492188 C 1300.826172 1917.853516 1301.294922 1918.097656 1301.919922 1917.941406 C 1303.091797 1917.609375 1304.439453 1917.462891 1305.699219 1918.126953 L 1305.162109 1919.552734 C 1304.839844 1920.353516 1305.015625 1920.929688 1305.503906 1921.4375 L 1307.554688 1923.498047 C 1308.023438 1923.976563 1308.462891 1923.986328 1308.970703 1923.888672 L 1309.859375 1923.742188 L 1310.376953 1924.25 L 1310.337891 1924.699219 C 1310.318359 1925.158203 1310.445313 1925.558594 1310.894531 1925.998047 L 1311.568359 1926.662109 C 1312.027344 1927.121094 1312.671875 1927.160156 1313.130859 1926.701172 L 1315.728516 1924.09375 C 1316.1875 1923.625 1316.158203 1923.019531 1315.689453 1922.560547 L 1315.005859 1921.876953 C 1314.566406 1921.4375 1314.195313 1921.271484 1313.736328 1921.300781 L 1313.267578 1921.349609 L 1312.779297 1920.861328 L 1312.984375 1919.923828 C 1313.111328 1919.376953 1312.935547 1918.927734 1312.408203 1918.400391 L 1310.152344 1916.164063 C 1307.564453 1913.595703 1303.033203 1913.957031 1300.816406 1916.134766 Z M 1302.232422 1916.544922 C 1303.990234 1915.265625 1307.427734 1915.412109 1308.970703 1916.935547 L 1311.431641 1919.376953 C 1311.636719 1919.582031 1311.675781 1919.738281 1311.617188 1920.041016 L 1311.324219 1921.369141 L 1312.671875 1922.707031 L 1313.550781 1922.658203 C 1313.775391 1922.648438 1313.853516 1922.667969 1314.019531 1922.833984 L 1314.527344 1923.332031 L 1312.359375 1925.5 L 1311.861328 1925.001953 C 1311.695313 1924.826172 1311.666016 1924.757813 1311.675781 1924.523438 L 1311.734375 1923.654297 L 1310.396484 1922.306641 L 1309.029297 1922.541016 C 1308.746094 1922.599609 1308.619141 1922.580078 1308.394531 1922.365234 L 1306.607422 1920.587891 C 1306.392578 1920.382813 1306.373047 1920.246094 1306.509766 1919.914063 L 1307.427734 1917.619141 C 1306.207031 1916.349609 1304.019531 1916.115234 1302.310547 1916.701172 C 1302.173828 1916.75 1302.125 1916.623047 1302.232422 1916.544922 Z"/>
        </g>
        <text id="Exporting" xml:space="preserve" x="1288" y="1955" font-family="Helvetica" font-size="13" font-weight="700" fill="#000000">Exporting</text>
        <text id="Symbols-should-be-outlined" xml:space="preserve" x="1288" y="1973" font-family="Helvetica" font-size="13" fill="#000000">Symbols should be outlined when exporting to ensure the</text>
        <text id="design-is-preserved-when" xml:space="preserve" x="1288" y="1991" font-family="Helvetica" font-size="13" fill="#000000">design is preserved when submitting to Xcode.</text>
        <text id="template-version" xml:space="preserve" x="2949.414063" y="1935" font-family="Helvetica" font-size="13" fill="#000000">Template v.7.0</text>
        <text id="Requires-Xcode-17-or" xml:space="preserve" x="2862.45752" y="1953" font-family="Helvetica" font-size="13" fill="#000000">Requires Xcode 17 or greater</text>
        <text id="Tokyo-Big-Sight-SF" xml:space="preserve" x="2876.212891" y="1971" font-family="Helvetica" font-size="13" fill="#000000">Tokyo Big Sight SF Symbol</text>
        <text id="Typeset-at-1000-points" xml:space="preserve" x="2898.569336" y="1989" font-family="Helvetica" font-size="13" fill="#000000">Typeset at 100.0 points</text>
        <text id="Small" xml:space="preserve" x="262" y="728" font-family="Helvetica" font-size="13" fill="#000000">Small</text>
        <text id="text1" xml:space="preserve" x="262" y="1158" font-family="Helvetica" font-size="13" fill="#000000">Medium</text>
        <text id="Large" xml:space="preserve" x="262" y="1588" font-family="Helvetica" font-size="13" fill="#000000">Large</text>
    </g>
    <g id="Guides">
        <g id="H-reference">
            <path id="path10" fill="#27aae1" stroke="none" d="M 339.993652 696 L 342.637756 696 L 368.328094 628.867676 L 369.030304 628.867676 L 369.030304 625.541016 L 367.122589 625.541016 Z M 350.688507 671.520142 L 385.981506 671.520142 L 385.231506 669.271484 L 351.438507 669.271484 Z M 394.119598 696 L 396.763702 696 L 369.638214 625.541016 L 368.432587 625.541016 L 368.432587 628.867676 Z"/>
        </g>
        <path id="Baseline-S" fill="none" stroke="#27aae1" stroke-width="0.5" d="M 263 696 L 3036 696"/>
        <path id="Capline-S" fill="none" stroke="#27aae1" stroke-width="0.5" d="M 263 625.541016 L 3036 625.541016"/>
        <g id="g6">
            <path id="path11" fill="#27aae1" stroke="none" d="M 339.993652 1126 L 342.637756 1126 L 368.328094 1058.867676 L 369.030304 1058.867676 L 369.030304 1055.541016 L 367.122589 1055.541016 Z M 350.688507 1101.520142 L 385.981506 1101.520142 L 385.231506 1099.271484 L 351.438507 1099.271484 Z M 394.119598 1126 L 396.763702 1126 L 369.638214 1055.541016 L 368.432587 1055.541016 L 368.432587 1058.867676 Z"/>
        </g>
        <path id="Baseline-M" fill="none" stroke="#27aae1" stroke-width="0.5" d="M 263 1126 L 3036 1126"/>
        <path id="Capline-M" fill="none" stroke="#27aae1" stroke-width="0.5" d="M 263 1055.540039 L 3036 1055.540039"/>
        <g id="g7">
            <path id="path12" fill="#27aae1" stroke="none" d="M 339.993652 1556 L 342.637756 1556 L 368.328094 1488.867676 L 369.030304 1488.867676 L 369.030304 1485.541016 L 367.122589 1485.541016 Z M 350.688507 1531.52002 L 385.981506 1531.52002 L 385.231506 1529.271484 L 351.438507 1529.271484 Z M 394.119598 1556 L 396.763702 1556 L 369.638214 1485.541016 L 368.432587 1485.541016 L 368.432587 1488.867676 Z"/>
        </g>
        <path id="Baseline-L" fill="none" stroke="#27aae1" stroke-width="0.5" d="M 263 1556 L 3036 1556"/>
        <path id="Capline-L" fill="none" stroke="#27aae1" stroke-width="0.5" d="M 263 1485.540039 L 3036 1485.540039"/>
        <path id="right-margin-Black-S" fill="none" stroke="#00aeef" stroke-width="0.5" d="M 2982.22998 600.784912 L 2982.22998 720.120972"/>
        <path id="left-margin-Black-S" fill="none" stroke="#00aeef" stroke-width="0.5" d="M 2884.570068 600.784912 L 2884.570068 720.120972"/>
        <path id="right-margin-Regular-S" fill="none" stroke="#00aeef" stroke-width="0.5" d="M 1496.109985 600.784912 L 1496.109985 720.120972"/>
        <path id="left-margin-Regular-S" fill="none" stroke="#00aeef" stroke-width="0.5" d="M 1403.579956 600.784912 L 1403.579956 720.120972"/>
        <path id="right-margin-Ultralight-S" fill="none" stroke="#00aeef" stroke-width="0.5" d="M 603.77301 600.784912 L 603.77301 720.120972"/>
        <path id="left-margin-Ultralight-S" fill="none" stroke="#00aeef" stroke-width="0.5" d="M 515.648987 600.784912 L 515.648987 720.120972"/>
    </g>
    <g id="Symbols">
        <g id="Black-S">
            <path id="Pillar-Right" fill="none" stroke="#000000" stroke-width="0.614754" stroke-opacity="0.799873" d="M 2957.614746 667.790161 L 2964.572998 667.790161 C 2966.413818 667.790161 2967.518311 667.790161 2968.254639 668.097656 C 2969.316162 668.484009 2970.152344 669.320068 2970.538818 670.381592 C 2970.846191 671.11792 2970.846191 672.222412 2970.846191 674.063232 L 2970.846191 690.726929 C 2970.846191 692.567749 2970.846191 693.672241 2970.538818 694.408569 C 2970.152344 695.470093 2969.316162 696.306274 2968.254639 696.692627 C 2967.518311 697 2966.413818 697 2964.572998 697 L 2957.614746 697 C 2955.773926 697 2954.669434 697 2953.933105 696.692627 C 2952.871582 696.306274 2952.0354 695.470093 2951.64917 694.408569 C 2951.341553 693.672241 2951.341553 692.567749 2951.341553 690.726929 L 2951.341553 674.063232 C 2951.341553 672.222412 2951.341553 671.11792 2951.64917 670.381592 C 2952.0354 669.320068 2952.871582 668.484009 2953.933105 668.097656 C 2954.669434 667.790161 2955.773926 667.790161 2957.614746 667.790161 Z M 2957.614746 667.790161"/>
            <path id="Pillar-Left" fill="none" stroke="#000000" stroke-width="0.614754" stroke-opacity="0.799873" d="M 2902.286865 667.790161 L 2909.245117 667.790161 C 2911.085938 667.790161 2912.19043 667.790161 2912.926758 668.097656 C 2913.988281 668.484009 2914.824463 669.320068 2915.210938 670.381592 C 2915.518311 671.11792 2915.518311 672.222412 2915.518311 674.063232 L 2915.518311 690.726929 C 2915.518311 692.567749 2915.518311 693.672241 2915.210938 694.408569 C 2914.824463 695.470093 2913.988281 696.306274 2912.926758 696.692627 C 2912.19043 697 2911.085938 697 2909.245117 697 L 2902.286865 697 C 2900.446045 697 2899.341553 697 2898.605225 696.692627 C 2897.543701 696.306274 2896.70752 695.470093 2896.321289 694.408569 C 2896.013672 693.672241 2896.013672 692.567749 2896.013672 690.726929 L 2896.013672 674.063232 C 2896.013672 672.222412 2896.013672 671.11792 2896.321289 670.381592 C 2896.70752 669.320068 2897.543701 668.484009 2898.605225 668.097656 C 2899.341553 667.790161 2900.446045 667.790161 2902.286865 667.790161 Z M 2902.286865 667.790161"/>
            <path id="Window" fill="none" stroke="#000000" stroke-width="0.614754" stroke-opacity="0.3006" d="M 2933.383545 646.102661 L 2942.474609 661.344238 L 2924.29248 661.344238 Z M 2933.383545 646.102661"/>
            <path id="Triangles" fill="none" stroke="#000000" stroke-width="0.614754" d="M 2904.302979 622.000122 C 2902.639893 622.000122 2901.641846 621.989014 2900.976563 622.266724 C 2900.017578 622.615845 2899.262451 623.370972 2898.91333 624.329956 C 2898.635742 624.995117 2898.632813 625.993164 2898.632813 627.65625 L 2898.632813 629.621216 L 2889.257324 629.621216 C 2887.898193 629.574707 2886.57959 629.889771 2885.383545 630.491333 C 2883.173584 631.602905 2881.455322 633.715576 2881.27124 636.343994 C 2881.193604 637.450928 2881.514893 638.496094 2881.9729 639.487793 C 2882.029297 639.609375 2882.05249 639.733154 2882.113281 639.852783 C 2882.125 639.871704 2882.143799 639.890137 2882.155518 639.908936 L 2883.404541 641.986084 L 2883.741455 642.547485 L 2885.902832 646.098389 L 2890.92749 654.322998 L 2893.439697 658.449341 C 2894.331543 659.817749 2895.537109 660.901733 2896.948486 661.621338 C 2898.303955 662.312256 2899.79834 662.643188 2901.299316 662.561646 L 2912.008301 662.561646 C 2913.582764 662.606689 2915.142822 662.236206 2916.555664 661.494995 C 2917.615234 660.939087 2918.588379 660.171875 2919.390625 659.24939 L 2921.383789 655.965088 L 2925.397705 649.38269 L 2933.439941 636.189575 L 2941.468018 649.38269 L 2943.334717 652.442261 L 2947.489014 659.24939 C 2948.291504 660.171875 2949.264648 660.939087 2950.324219 661.494995 C 2951.737061 662.236206 2953.296875 662.606689 2954.871582 662.561646 L 2965.580322 662.561646 C 2967.081299 662.643188 2968.575928 662.312256 2969.931152 661.621338 C 2971.342529 660.901733 2972.54834 659.817871 2973.439941 658.449341 L 2975.952393 654.322998 L 2980.977051 646.098389 L 2983.138428 642.547485 L 2983.475098 641.986084 L 2984.724365 639.908936 C 2984.736084 639.890137 2984.754883 639.871704 2984.766357 639.852783 C 2984.827148 639.733154 2984.850586 639.609497 2984.906738 639.487793 C 2985.36499 638.496094 2985.686035 637.450928 2985.608643 636.343994 C 2985.563477 635.686768 2985.42334 635.048096 2985.201416 634.463257 C 2984.979248 633.87854 2984.668457 633.332764 2984.303223 632.835205 C 2983.937988 632.337646 2983.515381 631.883057 2983.040039 631.487793 C 2982.564453 631.092651 2982.048828 630.769287 2981.496338 630.491333 C 2980.300049 629.889771 2978.981689 629.574707 2977.622559 629.621216 L 2968.331299 629.621216 L 2968.331299 627.65625 C 2968.331299 625.993164 2968.328369 624.995117 2968.050537 624.329956 C 2967.701416 623.370972 2966.946289 622.615845 2965.987305 622.266724 C 2965.322266 621.989014 2964.324219 622.000122 2962.661133 622.000122 L 2956.373291 622.000122 C 2954.710205 622.000122 2953.712158 621.989014 2953.047119 622.266724 C 2952.087891 622.615845 2951.332764 623.370972 2950.983887 624.329956 C 2950.706055 624.995117 2950.703125 625.993164 2950.703125 627.65625 L 2950.703125 629.621216 L 2937.439941 629.621216 L 2929.439941 629.621216 L 2916.246826 629.621216 L 2916.246826 627.65625 C 2916.246826 625.993164 2916.257813 624.995117 2915.980225 624.329956 C 2915.631104 623.370972 2914.875977 622.615845 2913.916992 622.266724 C 2913.251709 621.989014 2912.253662 622.000122 2910.590576 622.000122 L 2904.302979 622.000122 Z M 2904.302979 622.000122"/>
        </g>
        <g id="Regular-S">
            <path id="path13" fill="none" stroke="#000000" stroke-width="0.5" stroke-opacity="0.799873" d="M 1470.102051 668.242676 L 1475.761597 668.242676 C 1477.258789 668.242676 1478.157104 668.242676 1478.755981 668.492798 C 1479.619263 668.807007 1480.299316 669.487061 1480.613647 670.350342 C 1480.863647 670.949219 1480.863647 671.847534 1480.863647 673.344849 L 1480.863647 686.897949 C 1480.863647 688.395142 1480.863647 689.293457 1480.613647 689.892334 C 1480.299316 690.755615 1479.619263 691.435791 1478.755981 691.75 C 1478.157104 692 1477.258789 692 1475.761597 692 L 1470.102051 692 C 1468.604858 692 1467.706543 692 1467.107666 691.75 C 1466.244263 691.435791 1465.564209 690.755615 1465.25 689.892334 C 1465 689.293457 1465 688.395142 1465 686.897949 L 1465 673.344849 C 1465 671.847534 1465 670.949219 1465.25 670.350342 C 1465.564209 669.487061 1466.244263 668.807007 1467.107666 668.492798 C 1467.706543 668.242676 1468.604858 668.242676 1470.102051 668.242676 Z M 1470.102051 668.242676"/>
            <path id="path14" fill="none" stroke="#000000" stroke-width="0.5" stroke-opacity="0.799873" d="M 1425.102051 668.242676 L 1430.761597 668.242676 C 1432.258789 668.242676 1433.157104 668.242676 1433.755981 668.492798 C 1434.619263 668.807007 1435.299438 669.487061 1435.613647 670.350342 C 1435.863647 670.949219 1435.863647 671.847534 1435.863647 673.344849 L 1435.863647 686.897949 C 1435.863647 688.395142 1435.863647 689.293457 1435.613647 689.892334 C 1435.299438 690.755615 1434.619263 691.435791 1433.755981 691.75 C 1433.157104 692 1432.258789 692 1430.761597 692 L 1425.102051 692 C 1423.604858 692 1422.706543 692 1422.107666 691.75 C 1421.244385 691.435791 1420.564209 690.755615 1420.25 689.892334 C 1420 689.293457 1420 688.395142 1420 686.897949 L 1420 673.344849 C 1420 671.847534 1420 670.949219 1420.25 670.350342 C 1420.564209 669.487061 1421.244385 668.807007 1422.107666 668.492798 C 1422.706543 668.242676 1423.604858 668.242676 1425.102051 668.242676 Z M 1425.102051 668.242676"/>
            <path id="path15" fill="none" stroke="#000000" stroke-width="0.5" stroke-opacity="0.3006" d="M 1450.394043 650.603516 L 1457.788086 663 L 1443 663 Z M 1450.394043 650.603516"/>
            <path id="path16" fill="none" stroke="#000000" stroke-width="0.5" d="M 1426.741821 631 C 1425.38916 631 1424.577515 630.991089 1424.036377 631.216919 C 1423.25647 631.500854 1422.642212 632.11499 1422.358398 632.89502 C 1422.132446 633.436035 1422.130127 634.247803 1422.130127 635.600464 L 1422.130127 637.198608 L 1414.504639 637.198608 C 1413.399292 637.160767 1412.326904 637.416992 1411.354126 637.90625 C 1409.556519 638.810425 1408.15918 640.528564 1408.009399 642.666382 C 1407.946289 643.566772 1408.20752 644.41687 1408.5802 645.223511 C 1408.625854 645.322388 1408.644897 645.422974 1408.694336 645.520264 C 1408.703735 645.535645 1408.718994 645.550659 1408.728516 645.565918 L 1409.744507 647.255371 L 1410.018433 647.712036 L 1411.776489 650.600098 L 1415.863159 657.289429 L 1417.906372 660.645508 C 1418.631714 661.758423 1419.612305 662.640137 1420.760254 663.225342 C 1421.862671 663.787354 1423.078125 664.056519 1424.29895 663.990112 L 1433.008789 663.990112 C 1434.289551 664.026733 1435.558228 663.725342 1436.707397 663.122559 C 1437.569092 662.67041 1438.360596 662.046509 1439.013184 661.296143 L 1440.634155 658.625 L 1443.898926 653.27124 L 1450.439941 642.540894 L 1456.96936 653.27124 L 1458.487671 655.759766 L 1461.866577 661.296143 C 1462.519165 662.046509 1463.310669 662.67041 1464.172485 663.122559 C 1465.321533 663.725464 1466.59021 664.026733 1467.870972 663.990112 L 1476.580811 663.990112 C 1477.801636 664.056519 1479.01709 663.787354 1480.119507 663.225342 C 1481.267456 662.640137 1482.248047 661.758545 1482.973389 660.645508 L 1485.016724 657.289429 L 1489.103394 650.600098 L 1490.861328 647.712036 L 1491.135254 647.255371 L 1492.151245 645.565918 C 1492.160767 645.550659 1492.176147 645.535645 1492.185425 645.520264 C 1492.234863 645.422974 1492.253906 645.322388 1492.299683 645.223511 C 1492.672241 644.41687 1492.933472 643.566772 1492.870361 642.666382 C 1492.83374 642.131958 1492.719849 641.612427 1492.539307 641.136841 C 1492.358643 640.661133 1492.105835 640.217285 1491.808716 639.812622 C 1491.511719 639.407959 1491.168091 639.038208 1490.781372 638.716797 C 1490.394531 638.395386 1489.975098 638.132324 1489.525757 637.90625 C 1488.552856 637.416992 1487.480591 637.160767 1486.375122 637.198608 L 1478.818237 637.198608 L 1478.818237 635.600464 C 1478.818237 634.247803 1478.815796 633.436035 1478.589844 632.89502 C 1478.30603 632.11499 1477.691895 631.500854 1476.911865 631.216919 C 1476.37085 630.991089 1475.559082 631 1474.206421 631 L 1469.092407 631 C 1467.739746 631 1466.928101 630.991089 1466.386963 631.216919 C 1465.607056 631.500854 1464.99292 632.11499 1464.708984 632.89502 C 1464.483032 633.436035 1464.480591 634.247803 1464.480591 635.600464 L 1464.480591 637.198608 L 1453.693237 637.198608 L 1447.186523 637.198608 L 1436.456177 637.198608 L 1436.456177 635.600464 C 1436.456177 634.247803 1436.46521 633.436035 1436.23938 632.89502 C 1435.955444 632.11499 1435.341309 631.500854 1434.561279 631.216919 C 1434.020264 630.991089 1433.208496 631 1431.855835 631 L 1426.741821 631 Z M 1426.741821 631"/>
        </g>
        <g id="Ultralight-S">
            <path id="path17" fill="none" stroke="#000000" stroke-width="0.466072" stroke-opacity="0.799873" d="M 578.767883 667.785156 L 584.043335 667.785156 C 585.438965 667.785156 586.276306 667.785156 586.834534 668.018188 C 587.639282 668.311157 588.273254 668.945068 588.566162 669.749878 C 588.799194 670.308105 588.799194 671.145386 588.799194 672.541016 L 588.799194 685.174561 C 588.799194 686.570068 588.799194 687.407471 588.566162 687.965698 C 588.273254 688.770508 587.639282 689.404419 586.834534 689.697388 C 586.276306 689.93042 585.438965 689.93042 584.043335 689.93042 L 578.767883 689.93042 C 577.372253 689.93042 576.534912 689.93042 575.976685 689.697388 C 575.171875 689.404419 574.537964 688.770508 574.245056 687.965698 C 574.012024 687.407471 574.012024 686.570068 574.012024 685.174561 L 574.012024 672.541016 C 574.012024 671.145386 574.012024 670.308105 574.245056 669.749878 C 574.537964 668.945068 575.171875 668.311157 575.976685 668.018188 C 576.534912 667.785156 577.372253 667.785156 578.767883 667.785156 Z M 578.767883 667.785156"/>
            <path id="path18" fill="none" stroke="#000000" stroke-width="0.466072" stroke-opacity="0.799873" d="M 536.821411 667.785156 L 542.096863 667.785156 C 543.492432 667.785156 544.329834 667.785156 544.888062 668.018188 C 545.69281 668.311157 546.326782 668.945068 546.61969 669.749878 C 546.852722 670.308105 546.852722 671.145386 546.852722 672.541016 L 546.852722 685.174561 C 546.852722 686.570068 546.852722 687.407471 546.61969 687.965698 C 546.326782 688.770508 545.69281 689.404419 544.888062 689.697388 C 544.329834 689.93042 543.492432 689.93042 542.096863 689.93042 L 536.821411 689.93042 C 535.425781 689.93042 534.58844 689.93042 534.030212 689.697388 C 533.225403 689.404419 532.591492 688.770508 532.298584 687.965698 C 532.065552 687.407471 532.065552 686.570068 532.065552 685.174561 L 532.065552 672.541016 C 532.065552 671.145386 532.065552 670.308105 532.298584 669.749878 C 532.591492 668.945068 533.225403 668.311157 534.030212 668.018188 C 534.58844 667.785156 535.425781 667.785156 536.821411 667.785156 Z M 536.821411 667.785156"/>
            <path id="path19" fill="none" stroke="#000000" stroke-width="0.466072" stroke-opacity="0.3006" d="M 560.397156 651.342896 L 567.28949 662.898193 L 553.504822 662.898193 Z M 560.397156 651.342896"/>
            <path id="path20" fill="none" stroke="#000000" stroke-width="0.466072" d="M 538.349915 633.069702 C 537.08905 633.069702 536.332397 633.061279 535.828064 633.271851 C 535.101013 633.536499 534.528503 634.109009 534.263855 634.83606 C 534.053345 635.340332 534.051086 636.097046 534.051086 637.35791 L 534.051086 638.847534 L 526.943115 638.847534 C 525.912659 638.812378 524.913086 639.051147 524.006287 639.507324 C 522.33075 640.349976 521.028198 641.95166 520.88855 643.944458 C 520.829773 644.783569 521.073242 645.57605 521.420593 646.327881 C 521.463196 646.420044 521.480957 646.513916 521.526978 646.604614 C 521.535767 646.618896 521.550049 646.632935 521.55896 646.647095 L 522.50592 648.221924 L 522.761353 648.647583 L 524.399963 651.339722 L 528.209351 657.575073 L 530.114014 660.703491 C 530.790039 661.740967 531.704163 662.562744 532.77417 663.108276 C 533.801819 663.63208 534.934814 663.882935 536.072815 663.821167 L 544.191589 663.821167 C 545.385376 663.855347 546.568054 663.574341 547.63916 663.012451 C 548.442505 662.591064 549.180237 662.009399 549.788574 661.309937 L 551.299561 658.820068 L 554.342834 653.82959 L 560.43988 643.827393 L 566.526367 653.82959 L 567.941589 656.149292 L 571.091187 661.309937 C 571.699524 662.009399 572.437256 662.591064 573.240601 663.012451 C 574.311707 663.574463 575.494385 663.855347 576.688171 663.821167 L 584.807007 663.821167 C 585.945007 663.882935 587.078003 663.63208 588.105591 663.108276 C 589.175659 662.562744 590.089722 661.740967 590.765747 660.703491 L 592.670471 657.575073 L 596.479797 651.339722 L 598.118469 648.647583 L 598.37384 648.221924 L 599.320862 646.647095 C 599.329773 646.632935 599.344055 646.618896 599.352783 646.604614 C 599.398865 646.513916 599.416626 646.420166 599.459229 646.327881 C 599.80658 645.57605 600.049988 644.783569 599.991211 643.944458 C 599.957092 643.446167 599.850891 642.961914 599.682617 642.518555 C 599.514221 642.075195 599.278564 641.661499 599.001648 641.28418 C 598.724731 640.907104 598.404419 640.562378 598.044006 640.262695 C 597.683289 639.963135 597.292358 639.718018 596.873535 639.507324 C 595.966675 639.051147 594.967102 638.812378 593.936707 638.847534 L 586.892578 638.847534 L 586.892578 637.35791 C 586.892578 636.097046 586.89032 635.340332 586.679749 634.83606 C 586.4151 634.109009 585.842651 633.536499 585.115601 633.271851 C 584.611267 633.061279 583.854553 633.069702 582.59375 633.069702 L 577.826721 633.069702 C 576.565918 633.069702 575.809204 633.061279 575.304932 633.271851 C 574.57782 633.536499 574.005371 634.109009 573.740723 634.83606 C 573.530151 635.340332 573.527893 636.097046 573.527893 637.35791 L 573.527893 638.847534 L 563.472473 638.847534 L 557.407349 638.847534 L 547.40509 638.847534 L 547.40509 637.35791 C 547.40509 636.097046 547.413452 635.340332 547.202942 634.83606 C 546.938293 634.109009 546.365784 633.536499 545.638733 633.271851 C 545.134399 633.061279 544.377747 633.069702 543.116882 633.069702 L 538.349915 633.069702 Z M 538.349915 633.069702"/>
        </g>
    </g>
</svg>
