<?xml version="1.0" encoding="UTF-8"?>
<svg xmlns="http://www.w3.org/2000/svg" xmlns:xlink="http://www.w3.org/1999/xlink" width="1024pt" height="1024pt" viewBox="0 0 1024 1024">
<path fill-rule="nonzero" fill="rgb(79.216003%, 88.627625%, 100%)" fill-opacity="1" d="M 590.144531 99.902344 C 562.664062 99.902344 535.183594 110.375 514.21875 131.339844 C 507.125 138.433594 501.363281 146.335938 496.667969 154.664062 C 454.582031 122.535156 394.269531 125.582031 355.796875 164.054688 C 344.164062 175.6875 335.886719 189.382812 330.707031 203.914062 C 289.566406 179.761719 235.859375 185.230469 200.550781 220.535156 C 158.621094 262.464844 158.621094 330.457031 200.550781 372.386719 C 234.292969 406.128906 284.867188 412.621094 325.199219 392.050781 C 327.960938 415.101562 338.109375 437.457031 355.796875 455.148438 C 397.726562 497.078125 465.675781 497.078125 507.605469 455.148438 C 510.546875 452.203125 513.273438 449.113281 515.804688 445.933594 C 520.917969 456.605469 527.769531 466.628906 536.617188 475.472656 C 578.542969 517.402344 646.539062 517.402344 688.464844 475.472656 C 709.691406 454.25 720.121094 426.347656 719.859375 398.535156 C 757 410.539062 799.355469 401.882812 828.855469 372.386719 C 870.78125 330.457031 870.78125 262.464844 828.855469 220.535156 C 793.171875 184.855469 738.675781 179.660156 697.375 204.707031 C 696.742188 178.09375 686.378906 151.652344 666.066406 131.339844 C 645.105469 110.375 617.621094 99.902344 590.144531 99.902344 Z M 590.144531 99.902344 "/>
</svg>
